<svg width="32" height="32" version="1.1" viewBox="0 0 64 64" xmlns="http://www.w3.org/2000/svg" xmlns:xlink="http://www.w3.org/1999/xlink">
 <defs>
  <linearGradient id="linearGradient4534" x1="28.203" x2="47.186" y1="20.339" y2="43.39" gradientTransform="matrix(-.99745 0 0 1.0026 63.692 0)" gradientUnits="userSpaceOnUse">
   <stop stop-color="#4c89e0" offset="0"/>
   <stop stop-color="#1d58c9" offset="1"/>
  </linearGradient>
 </defs>
 <path d="m21.692 62c-2.2 0-4-1.8-4-4v-14.2s-0.4-3.7-2.8-3.7-2.2 3.9-6.7 3.9c-2.3 0-6.2-1.2-6.2-8.2s3.9-7.9 6.2-7.9c4.5 0 4.3 3.7 6.7 3.7s2.8-3.8 2.8-3.8v-5.8c0-2.2 1.8-4 4-4h10.5s3.4-0.6 3.4-3-3.8-2.6-3.8-7.1c0-2.3 1.3-5.9 8.3-5.9s8 3.6 8 5.9c0 4.5-3.4 4.7-3.4 7.1s3.4 3 3.4 3h9.6c2.2 0 4 1.8 4 4v7.8s0.4 6-4.4 6c-3.1 0-3.2-4.1-7.3-4.1-2 0-4 1.9-4 6 0 4.2 2 6.3 4 6.3 4 0 4.2-4.1 7.3-4.1 4.8 0 4.4 5.8 4.4 5.8v12.3c0 2.2-1.8 4-4 4h-13s-6.3 0.4-6.3-4.4c0-3.1 4-3.6 4-7.7 0-2-2.2-4.5-6.4-4.5s-6.6 2.5-6.6 4.5c0 4 3.9 4.6 3.9 7.7 0 4.9-6.3 4.4-6.3 4.4z" fill="url(#linearGradient4534)"/>
</svg>
