<svg xmlns="http://www.w3.org/2000/svg" width="32" height="32" xmlns:xlink="http://www.w3.org/1999/xlink" viewBox="0 0 32 32.000001"><defs><linearGradient id="c"><stop stop-color="#e68300" offset="0"/><stop stop-color="#ea9300" offset="1"/></linearGradient><radialGradient id="d" cx="888.096" cy="115.717" r="64" gradientUnits="userSpaceOnUse" fy="115.717" fx="888.096" xlink:href="#a" gradientTransform="matrix(.11714 .37284 -.3623 .11383 -54.87 -338.867)"/><radialGradient id="a" cx="334.187" cy="11.728" r="7.025" gradientUnits="userSpaceOnUse" fy="11.728" fx="334.187"><stop stop-opacity=".702" stop-color="#fff" offset=".05"/><stop stop-opacity="0" stop-color="#fff" offset="1"/></radialGradient><linearGradient id="e" x1="92" x2="194" y1="146.446" y2="146.446" gradientUnits="userSpaceOnUse" xlink:href="#b" gradientTransform="translate(-13.198 -13.622) scale(.20283)"/><radialGradient id="b" cx="334.187" cy="11.728" r="7.025" fx="334.187" fy="11.728" gradientUnits="userSpaceOnUse"><stop stop-color="#f9f9fb" offset=".05"/><stop stop-color="#dddcdc" offset="1"/></radialGradient></defs><path fill="#d65600" d="M26.526 1.836c-7.383.18-14.768-.066-22.15.123C1.96 2.46 1.6 5.27 1.92 7.294c.04 6.823-.135 13.65.096 20.47.607 2.416 2.54 2.31 5.49 2.31 6.76-.037 13.52.137 20.278-.093 2.416-.607 2.574-3.467 2.31-5.49-.038-6.76.136-13.52-.094-20.278-.35-1.528-1.99-2.43-3.476-2.38h.002M5.428 4.076c3.572.164 7.162 0 10.744.043 3.76.065 7.53-.13 11.282.156.973 1.31.13 3.052.413 4.548-.036 6.174.128 12.35-.09 18.524-1.176 1.132-2.966.198-4.406.5-6.24-.04-12.48.132-18.72-.09-1.12-1.182-.195-2.97-.494-4.41.05-6.26-.165-12.526.12-18.785.284-.334.73-.474 1.154-.486h-.002"/><path fill="url(#c)" d="M5.056 3.01h21.906c1.123 0 2.028.905 2.028 2.028v21.906c0 1.123-.905 2.028-2.028 2.028H5.056c-1.123 0-2.028-.905-2.028-2.028V5.038c0-1.123.905-2.028 2.028-2.028"/><path fill="url(#d)" d="M5.056 3.01c-1.123 0-2.028.905-2.028 2.028V20.9c2.8-6.435 13.016-10.962 24.757-10.97.402.006.804.017 1.205.034V5.038c0-1.123-.905-2.028-2.028-2.028H5.056"/><path fill-opacity=".5" d="M5.463 6.664V10.8h1.182s6.65.296 10.343 4.73c5.172 5.32 4.73 10.64 4.73 10.64v1.182h4.432v-1.036s-.444-8.423-5.32-13.003c-1.583-1.845-3.837-3.264-6.488-4.344-2.652-1.084-5.7-1.824-8.88-2.308m0 7.39v3.988h1.183s3.545.15 5.76 2.07c2.81 2.66 2.66 6.207 2.66 6.207V27.5h3.843v-1.184s-.59-5.76-3.693-8.716c-2.23-1.913-6.143-3.19-9.752-3.547m2.955 7.388c-1.625 0-2.955 1.33-2.955 2.958 0 1.626 1.328 2.956 2.955 2.956 1.625 0 2.955-1.33 2.955-2.956 0-1.625-1.33-2.955-2.955-2.955"/><path fill="url(#e)" d="M5.463 5.664V9.8h1.182s6.65.296 10.343 4.73c5.172 5.32 4.73 10.64 4.73 10.64v1.182h4.432v-1.036s-.444-8.423-5.32-13.003c-1.583-1.845-3.837-3.264-6.488-4.344-2.652-1.084-5.7-1.824-8.88-2.308m0 7.39v3.988h1.183s3.545.15 5.76 2.07c2.81 2.66 2.66 6.207 2.66 6.207V26.5h3.843v-1.184s-.59-5.76-3.693-8.716c-2.23-1.913-6.143-3.19-9.752-3.547m2.955 7.388c-1.625 0-2.955 1.33-2.955 2.958 0 1.626 1.328 2.956 2.955 2.956 1.625 0 2.955-1.33 2.955-2.956 0-1.625-1.33-2.955-2.955-2.955"/></svg>