<svg width="48" height="16" version="1.1" viewBox="0 0 48 16" xmlns="http://www.w3.org/2000/svg" xmlns:xlink="http://www.w3.org/1999/xlink">
 <defs>
  <linearGradient id="a" x1="3.028" x2="28.99" y1="3.01" y2="3.01" gradientTransform="matrix(.56404 0 0 .56594 -1.0269 625.19)" gradientUnits="userSpaceOnUse">
   <stop stop-color="#e68300" offset="0"/>
   <stop stop-color="#ea9300" offset="1"/>
  </linearGradient>
  <radialGradient id="f" cx="-1823.7" cy="-753.18" r="64" gradientTransform="matrix(.15284 .20525 -.17159 .12864 150.93 471.28)" gradientUnits="userSpaceOnUse">
   <stop stop-color="#fff" stop-opacity=".702" offset=".05"/>
   <stop stop-color="#fff" stop-opacity="0" offset="1"/>
  </radialGradient>
  <linearGradient id="g" x1="92" x2="194" y1="146.45" y2="146.45" gradientTransform="matrix(.1144 0 0 .11479 -8.471 617.48)" gradientUnits="userSpaceOnUse">
   <stop stop-color="#f9f9fb" offset=".05"/>
   <stop stop-color="#dddcdc" offset="1"/>
  </linearGradient>
 </defs>
 <g id="main">
  <path d="m13.935.0022496c-4.1643.10187-8.3297-.037356-12.493.069614-1.3627.28354-1.5658 1.8738-1.3853 3.0199.02256 3.8614-.07615 7.7251.05415 11.585.34237 1.3673 1.4327 1.3073 3.0966 1.3073 3.8129-.02094 7.6258.07753 11.438-.05264 1.3627-.34353 1.4518-1.9621 1.3029-3.107-.02143-3.8258.07671-7.6515-.05302-11.476-.19741-.86476-1.1224-1.3752-1.9606-1.3469h.0011m-11.9 1.2688c2.0147.092812 4.0396 0 6.06.024332 2.1208.037356 4.2472-.073567 6.3635.088849.54881.74138.07333 1.7272.23295 2.5739-.02031 3.4941.0722 6.9894-.05076 10.483-.66331.64064-1.6729.11206-2.4851.28297-3.5196-.02264-7.0392.0747-10.559-.05093-.63172-.66894-.11055-1.6808-.2792-2.4958.0282-3.5428-.09307-7.089.06768-10.631.16019-.18902.41175-.26826.6509-.27505h-.0011" fill="#d65600" stroke-width=".56499"/>
  <path d="m1.8249.66666h12.356c.63341 0 1.1439.51218 1.1439 1.1477v12.397c0 .63555-.51045 1.1477-1.1439 1.1477h-12.356c-.63341 0-1.1439-.51218-1.1439-1.1477v-12.397c0-.63555.51045-1.1477 1.1439-1.1477" fill="url(#a)" stroke-width=".56499"/>
  <path d="m1.8249.66666c-.63341 0-1.1439.51218-1.1439 1.1477v8.9769c1.5793-3.6418 7.3415-6.2038 13.964-6.2084.22674.00562.45349.00963.67966.019245v-2.7878c0-.63555-.51045-1.1477-1.1439-1.1477h-12.356" fill="url(#f)" stroke-width=".56499"/>
  <path d="m2.0545 2.7346v2.3407h.66669s3.7508.16752 5.8338 2.6769c2.9172 3.0108 2.6679 6.0216 2.6679 6.0216v.66894h2.4998v-.58631s-.25043-4.7669-3.0007-7.3589c-.89287-1.0442-2.1642-1.8472-3.6595-2.4584-1.4958-.61291-3.215-1.0317-5.0086-1.3056m0 4.1823v2.257h.66726s1.9995.084896 3.2489 1.1715c1.5849 1.5054 1.5003 3.5128 1.5003 3.5128v.66951h2.1676v-.67007s-.33278-3.2598-2.083-4.9327c-1.2578-1.0826-3.4649-1.8053-5.5005-2.0074m1.6667 4.1812c-.91656 0-1.6667.7527-1.6667 1.6735 0 .92022.74904 1.6729 1.6667 1.6729.91656 0 1.6667-.7527 1.6667-1.6729 0-.91965-.75017-1.6724-1.6667-1.6724" fill-opacity=".5" stroke-width=".56499"/>
  <path d="m2.0545 2.1687v2.3407h.66669s3.7508.16752 5.8338 2.6769c2.9172 3.0108 2.6679 6.0216 2.6679 6.0216v.66894h2.4998v-.58631s-.25043-4.7669-3.0007-7.3589c-.89287-1.0442-2.1642-1.8472-3.6595-2.4584-1.4958-.61291-3.215-1.0317-5.0086-1.3056m0 4.1823v2.257h.66726s1.9995.084886 3.2489 1.1715c1.5849 1.5054 1.5003 3.5128 1.5003 3.5128v.66951h2.1676v-.67007s-.33278-3.2598-2.083-4.9327c-1.2578-1.0826-3.4649-1.8053-5.5005-2.0074m1.6667 4.1812c-.91656 0-1.6667.7527-1.6667 1.6735 0 .92022.74904 1.6729 1.6667 1.6729.91656 0 1.6667-.7527 1.6667-1.6729 0-.91965-.75017-1.6724-1.6667-1.6724" fill="url(#g)" stroke-width=".56499"/>
 </g>
 <use transform="translate(16)" width="100%" height="100%" filter="brightness(110%)" xlink:href="#main"/>
 <use transform="translate(32)" width="100%" height="100%" filter="brightness(90%)" xlink:href="#main"/>
</svg>
