<svg xmlns="http://www.w3.org/2000/svg" xmlns:xlink="http://www.w3.org/1999/xlink" width="48" height="16" viewBox="0 0 48 16">
  <defs>
    <linearGradient id="bm-none" x1="375.4" x2="375.4" y1="-1106.9" y2="-1085.9" gradientTransform="translate(-359.4 1097.9)" gradientUnits="userSpaceOnUse">
      <stop offset="0" stop-color="#c9c9c9"/>
      <stop offset="1" stop-color="#fff"/>
    </linearGradient>
    <filter id="filter2164" color-interpolation-filters="sRGB">
      <feFlood flood-color="#000" result="flood"/>
      <feComposite in="flood" in2="SourceGraphic" operator="out" result="composite1"/>
      <feGaussianBlur in="composite1" result="blur" stdDeviation="1.18"/>
      <feOffset result="offset"/>
      <feComposite in="offset" in2="SourceGraphic" operator="atop" result="composite2"/>
    </filter>
    <linearGradient id="linearGradient894" x1="375.4" x2="375.4" y1="-1106.9" y2="-1085.9" gradientTransform="translate(-383.89 1170.6) scale(1.0667)" gradientUnits="userSpaceOnUse" xlink:href="#bm-none"/>
    <linearGradient id="linearGradient899" x1="375.4" x2="375.4" y1="-1106.9" y2="-1085.9" gradientTransform="translate(-367.89 1170.6) scale(1.0667)" gradientUnits="userSpaceOnUse" xlink:href="#bm-none"/>
    <linearGradient id="linearGradient903" x1="375.4" x2="375.4" y1="-1091.9" y2="-1084" gradientTransform="translate(-351.89 1170.6) scale(1.0667)" gradientUnits="userSpaceOnUse">
      <stop offset="0" stop-color="#fbbe30"/>
      <stop offset="1" stop-color="#fbe366"/>
    </linearGradient>
    <filter id="filter1145" color-interpolation-filters="sRGB">
      <feFlood flood-color="#CBA110" result="flood"/>
      <feComposite in="flood" in2="SourceGraphic" operator="out" result="composite1"/>
      <feGaussianBlur in="composite1" result="blur" stdDeviation="1.18"/>
      <feOffset result="offset"/>
      <feComposite in="offset" in2="SourceGraphic" operator="atop" result="composite2"/>
    </filter>
    <filter id="filter1168" width="1" height="1" x="0" y="0" color-interpolation-filters="sRGB">
      <feFlood flood-color="#B47533" result="flood"/>
      <feComposite in="flood" in2="SourceGraphic" operator="out" result="composite1"/>
      <feGaussianBlur in="composite1" result="blur" stdDeviation="1"/>
      <feOffset result="offset"/>
      <feComposite in="offset" in2="SourceGraphic" operator="atop" result="composite2"/>
    </filter>
    <filter id="filter1168-9" width="1" height="1" x="0" y="0" color-interpolation-filters="sRGB">
      <feFlood flood-color="#966000" result="flood"/>
      <feComposite in="flood" in2="SourceGraphic" operator="out" result="composite1"/>
      <feGaussianBlur in="composite1" result="blur" stdDeviation="1"/>
      <feOffset result="offset"/>
      <feComposite in="offset" in2="SourceGraphic" operator="in" result="composite2"/>
    </filter>
  </defs>
  <path id="bookmark-none" fill="url(#linearGradient894)" stroke-width="0" d="M8 0s-.4.84-.97 1.82A9.38 9.38 0 0 1 5 4.4a8.4 8.4 0 0 1-5 1.4c1.32 1.41 2.7 2.7 3.59 4.4.35.7-.08 1.85-.24 2.86A58.94 58.94 0 0 1 2.8 16c1.64-.84 3.47-1.72 5.2-2 1.93.1 3.53 1.14 5.2 2l-.28-3.15c-.1-1.02-.39-2.12-.1-2.74.62-1.71 2.02-2.95 3.18-4.3a8.2 8.2 0 0 1-5-1.4 9.2 9.2 0 0 1-2.02-2.58C8.4.85 8 0 8 0z" filter="url(#filter2164)"/>
  <path id="bookmark-hover" fill="url(#linearGradient899)" stroke-width="0" d="M24 0s-.4.84-.97 1.82A9.38 9.38 0 0 1 21 4.4a8.4 8.4 0 0 1-5 1.4c1.32 1.41 2.7 2.7 3.59 4.4.35.7-.08 1.85-.24 2.86A58.94 58.94 0 0 1 18.8 16c1.64-.84 3.47-1.72 5.2-2 1.93.1 3.53 1.14 5.2 2l-.28-3.15c-.1-1.02-.39-2.12-.1-2.74.62-1.71 2.02-2.95 3.18-4.3a8.2 8.2 0 0 1-5-1.4 9.2 9.2 0 0 1-2.02-2.58C24.4.85 24 0 24 0z" filter="url(#filter1145)"/>
  <path id="bookmark-active" fill="url(#linearGradient903)" stroke-width="0" d="M40 0s-.4.84-.97 1.82A9.38 9.38 0 0 1 37 4.4a8.4 8.4 0 0 1-5 1.4c1.32 1.41 2.7 2.7 3.59 4.4.35.7-.08 1.85-.24 2.86A58.94 58.94 0 0 1 34.8 16c1.64-.84 3.47-1.72 5.2-2 1.93.1 3.53 1.14 5.2 2l-.28-3.15c-.1-1.02-.39-2.12-.1-2.74.62-1.71 2.02-2.95 3.18-4.3a8.2 8.2 0 0 1-5-1.4 9.2 9.2 0 0 1-2.02-2.58C40.4.85 40 0 40 0z" filter="url(#filter1168)"/>
  <path id="bookmark-active-overlay" fill="#fbbe30" stroke-width="0" d="M40 0s-.4.84-.97 1.82A9.38 9.38 0 0 1 37 4.4a8.4 8.4 0 0 1-5 1.4c1.32 1.41 2.7 2.7 3.59 4.4.35.7-.08 1.85-.24 2.86A58.94 58.94 0 0 1 34.8 16c1.64-.84 3.47-1.72 5.2-2 1.93.1 3.53 1.14 5.2 2l-.28-3.15c-.1-1.02-.39-2.12-.1-2.74.62-1.71 2.02-2.95 3.18-4.3a8.2 8.2 0 0 1-5-1.4 9.2 9.2 0 0 1-2.02-2.58C40.4.85 40 0 40 0z" filter="url(#filter1168-9)"/>
</svg>
