<svg width="16" height="16" version="1.1" viewBox="0 0 16 16" xmlns="http://www.w3.org/2000/svg" xmlns:xlink="http://www.w3.org/1999/xlink">
 <defs>
  <linearGradient id="calendarGradient" x1="1" x2="15" y1="2.5" y2="2.5" gradientUnits="userSpaceOnUse">
   <stop stop-color="#f2f5f6" offset="0"/>
   <stop stop-color="#34b8d7" offset="1"/>
  </linearGradient>
 </defs>
 <path d="m0 0h16v16h-16z" fill="#e2edf8"/>
 <path d="m1.037e-6 0v16h16v-16zm1 1h14v14h-14z" fill="#9ca2a2"/>
 <path d="m5 6v2h2v-2zm4 0v2h2v-2zm3 0v2h2v-2zm-10 3v2h2v-2zm3 0v2h2v-2zm4 0v2h2v-2zm3 0v2h2v-2zm-10 3v2h2v-2zm3 0v2h2v-2zm4 0v2h2v-2z" fill="#34b8d7"/>
 <path d="m2 6v2h2v-2zm10 6v2h2v-2z" fill="#adc4cb"/>
 <path d="m1 1h14v3h-14z" fill="url(#calendarGradient)"/>
 <path d="m3 2v1h1v-1zm9 0v1h1v-1z" fill="#9ca2a2"/>
</svg>
