<svg width="16" height="16" version="1.1" viewBox="0 0 16 16" xmlns="http://www.w3.org/2000/svg">
 <path d="m14.652 9.1-5.6234 5.5c-.2.3-.6.4-1 .4s-.82262-.1-1.1226-.4l-5.6-5.5c-.5-.6-.4-1.1.4-1.1h3.3v-6c0-.6.4-1 1-1h4.046c.6 0 1 .4 1 1v6h3.2c.8 0 1 .5.4 1.1z" fill="#1b96db"/>
 <path d="m6.0097 1c-.59984 0-.99974.4-.99974 1v6h-3.3043c-.79979 0-.90017.49961-.4003 1.0996l5.6045 5.5c.29992.3.7209.40039 1.1208.40039s.7998-.10039.99974-.40039l5.621-5.4998c.59986-.59999.39951-1.0995-.40029-1.0996l-3.1977-2e-4v-6c0-.6-.39989-1-.99974-1zm.57017 1.043h2.8879c.42844 0 .71467.2863.71467.71484v6.2422h2.2846c.57125 0 .71353.3566.28509.78516l-4.0146 3.9297c-.1428.21428-.42904.28516-.71467.28516s-.58633-.0709-.80057-.28516l-3.999-3.9297c-.35705-.42856-.28618-.78516.28508-.78516h2.3568v-6.2422c0-.42854.2862-.71484.71466-.71484z" fill="#1e335f"/>
</svg>
