<svg xmlns="http://www.w3.org/2000/svg" xmlns:xlink="http://www.w3.org/1999/xlink" width="48" height="16" viewBox="0 0 48 16">
  <defs>
    <linearGradient id="linearGradient903" x1="375.4" x2="375.4" y1="-1091.9" y2="-1084" gradientTransform="translate(-383.89 1170.6) scale(1.0667)" gradientUnits="userSpaceOnUse">
      <stop offset="0" stop-color="#fbbe30"/>
      <stop offset="1" stop-color="#fbe366"/>
    </linearGradient>
    <filter id="filter1168" width="1" height="1" x="0" y="0" color-interpolation-filters="sRGB">
      <feFlood flood-color="#B47533" result="flood"/>
      <feComposite in="flood" in2="SourceGraphic" operator="out" result="composite1"/>
      <feGaussianBlur in="composite1" result="blur" stdDeviation="1"/>
      <feOffset result="offset"/>
      <feComposite in="offset" in2="SourceGraphic" operator="atop" result="composite2"/>
    </filter>
    <filter id="filter1168-9" width="1" height="1" x="0" y="0" color-interpolation-filters="sRGB">
      <feFlood flood-color="#966000" result="flood"/>
      <feComposite in="flood" in2="SourceGraphic" operator="out" result="composite1"/>
      <feGaussianBlur in="composite1" result="blur" stdDeviation="1"/>
      <feOffset result="offset"/>
      <feComposite in="offset" in2="SourceGraphic" operator="in" result="composite2"/>
    </filter>
  </defs>
  <g id="bookmark-active-group" stroke-width="0">
    <path id="bookmark-active" fill="url(#linearGradient903)" d="M2.872 12.983c.299-2.996.299-2.996-1.29-4.526-2.33-2.244-2.13-3 .891-3.376C4.94 4.774 4.96 4.76 6.126 2.386 6.808.998 7.593 0 8.003 0c.41 0 1.198 1.004 1.888 2.406 1.178 2.396 1.195 2.408 3.652 2.715 3.006.374 3.198 1.104.881 3.336-1.588 1.53-1.588 1.53-1.29 4.526.352 3.525.032 3.71-3.16 1.844-1.97-1.152-1.97-1.152-3.941 0-3.193 1.867-3.512 1.68-3.16-1.844z" filter="url(#filter1168)"/>
    <path id="bookmark-active-overlay" fill="#fbbe30" d="M2.872 12.983c.299-2.996.299-2.996-1.29-4.526-2.33-2.244-2.13-3 .891-3.376C4.94 4.774 4.96 4.76 6.126 2.386 6.808.998 7.593 0 8.003 0c.41 0 1.198 1.004 1.888 2.406 1.178 2.396 1.195 2.408 3.652 2.715 3.006.374 3.198 1.104.881 3.336-1.588 1.53-1.588 1.53-1.29 4.526.352 3.525.032 3.71-3.16 1.844-1.97-1.152-1.97-1.152-3.941 0-3.193 1.867-3.512 1.68-3.16-1.844z" filter="url(#filter1168-9)"/>
  </g>
  <use id="bookmarked-hover" width="100%" height="100%" filter="brightness(110%)" transform="translate(16)" xlink:href="#bookmark-active-group"/>
  <use id="bookmarked-active" width="100%" height="100%" filter="brightness(90%)" transform="translate(32)" xlink:href="#bookmark-active-group"/>
</svg>
