<svg xmlns="http://www.w3.org/2000/svg" xmlns:xlink="http://www.w3.org/1999/xlink" width="48" height="16" viewBox="0 0 48 16">
  <defs>
    <filter id="filter1168-9-1" color-interpolation-filters="sRGB">
      <feFlood flood-color="#966000" result="flood"/>
      <feComposite in="flood" in2="SourceGraphic" operator="out" result="composite1"/>
      <feGaussianBlur in="composite1" result="blur" stdDeviation="1.5"/>
      <feOffset result="offset"/>
      <feComposite in="offset" in2="SourceGraphic" operator="in" result="composite2"/>
    </filter>
    <radialGradient id="radialGradient6405" cx="40" cy="-6.409" r="9.6" gradientTransform="matrix(1.7954 0 0 .82966 -63.817 17.318)" gradientUnits="userSpaceOnUse">
      <stop offset="0" stop-color="#fbe366"/>
      <stop offset="1" stop-color="#f4b228"/>
    </radialGradient>
    <filter id="filter1168-6" color-interpolation-filters="sRGB">
      <feFlood flood-color="#B47533" result="flood"/>
      <feComposite in="flood" in2="SourceGraphic" operator="out" result="composite1"/>
      <feGaussianBlur in="composite1" result="blur" stdDeviation="1"/>
      <feOffset result="offset"/>
      <feComposite in="offset" in2="SourceGraphic" operator="atop" result="composite2"/>
    </filter>
  </defs>
  <g id="bookmark-active-group">
    <path id="bookmark-active" fill="url(#radialGradient6405)" d="M2.872 12.984c.299-2.996.299-2.996-1.29-4.526-2.33-2.244-2.13-3 .891-3.376 2.466-.307 2.485-.321 3.652-2.695C6.808.999 7.593.001 8.003.001c.41 0 1.198 1.004 1.888 2.406 1.177 2.396 1.195 2.408 3.652 2.715 3.005.374 3.198 1.104.881 3.336-1.588 1.53-1.588 1.53-1.29 4.526.352 3.525.032 3.71-3.16 1.844-1.97-1.152-1.97-1.152-3.941 0-3.193 1.867-3.512 1.68-3.161-1.844z" filter="url(#filter1168-6)"/>
    <path id="bookmark-active-overlay" fill="#fbbe30" d="M2.872 12.984c.299-2.996.299-2.996-1.29-4.526-2.33-2.244-2.13-3 .891-3.376 2.466-.307 2.485-.321 3.652-2.695C6.808.999 7.593.001 8.003.001c.41 0 1.198 1.004 1.888 2.406 1.177 2.396 1.195 2.408 3.652 2.715 3.005.374 3.198 1.104.881 3.336-1.588 1.53-1.588 1.53-1.29 4.526.352 3.525.032 3.71-3.16 1.844-1.97-1.152-1.97-1.152-3.941 0-3.193 1.867-3.512 1.68-3.161-1.844z" filter="url(#filter1168-9-1)"/>
  </g>
  <use id="bookmarked-hover" width="100%" height="100%" filter="brightness(110%)" transform="translate(16)" xlink:href="#bookmark-active-group"/>
  <use id="bookmarked-active" width="100%" height="100%" filter="brightness(80%)" transform="translate(32)" xlink:href="#bookmark-active-group"/>
</svg>
