<svg xmlns="http://www.w3.org/2000/svg" xmlns:xlink="http://www.w3.org/1999/xlink" width="48" height="16" viewBox="0 0 48 16">
  <defs>
    <linearGradient id="linearGradient903" x1="375.4" x2="375.4" y1="-1091.9" y2="-1084" gradientTransform="translate(-383.89 1170.6) scale(1.0667)" gradientUnits="userSpaceOnUse">
      <stop offset="0" stop-color="#fbbe30"/>
      <stop offset="1" stop-color="#fbe366"/>
    </linearGradient>
    <filter id="filter1168" width="1" height="1" x="0" y="0" color-interpolation-filters="sRGB">
      <feFlood flood-color="#B47533" result="flood"/>
      <feComposite in="flood" in2="SourceGraphic" operator="out" result="composite1"/>
      <feGaussianBlur in="composite1" result="blur" stdDeviation="1"/>
      <feOffset result="offset"/>
      <feComposite in="offset" in2="SourceGraphic" operator="atop" result="composite2"/>
    </filter>
    <filter id="filter1168-9" width="1" height="1" x="0" y="0" color-interpolation-filters="sRGB">
      <feFlood flood-color="#966000" result="flood"/>
      <feComposite in="flood" in2="SourceGraphic" operator="out" result="composite1"/>
      <feGaussianBlur in="composite1" result="blur" stdDeviation="1"/>
      <feOffset result="offset"/>
      <feComposite in="offset" in2="SourceGraphic" operator="in" result="composite2"/>
    </filter>
  </defs>
  <g id="bookmark-active-group" stroke-width="0">
    <path id="bookmark-active" fill="url(#linearGradient903)" d="M8 0s-.4.84-.97 1.82A9.38 9.38 0 0 1 5 4.4a8.4 8.4 0 0 1-5 1.4c1.32 1.41 2.7 2.7 3.59 4.4.35.7-.08 1.85-.24 2.86A58.94 58.94 0 0 1 2.8 16c1.64-.84 3.47-1.72 5.2-2 1.93.1 3.53 1.14 5.2 2l-.28-3.15c-.1-1.02-.39-2.12-.1-2.74.62-1.71 2.02-2.95 3.18-4.3a8.2 8.2 0 0 1-5-1.4 9.2 9.2 0 0 1-2.02-2.58C8.4.85 8 0 8 0z" filter="url(#filter1168)"/>
    <path id="bookmark-active-overlay" fill="#fbbe30" d="M8 0s-.4.84-.97 1.82A9.38 9.38 0 0 1 5 4.4a8.4 8.4 0 0 1-5 1.4c1.32 1.41 2.7 2.7 3.59 4.4.35.7-.08 1.85-.24 2.86A58.94 58.94 0 0 1 2.8 16c1.64-.84 3.47-1.72 5.2-2 1.93.1 3.53 1.14 5.2 2l-.28-3.15c-.1-1.02-.39-2.12-.1-2.74.62-1.71 2.02-2.95 3.18-4.3a8.2 8.2 0 0 1-5-1.4 9.2 9.2 0 0 1-2.02-2.58C8.4.85 8 0 8 0z" filter="url(#filter1168-9)"/>
  </g>
  <use id="bookmarked-hover" width="100%" height="100%" filter="brightness(110%)" transform="translate(16)" xlink:href="#bookmark-active-group"/>
  <use id="bookmarked-active" width="100%" height="100%" filter="brightness(90%)" transform="translate(32)" xlink:href="#bookmark-active-group"/>
</svg>
