<svg width="16" height="16" version="1.1" viewBox="0 0 16 16" xmlns="http://www.w3.org/2000/svg" xmlns:xlink="http://www.w3.org/1999/xlink">
 <defs>
  <radialGradient id="radialGradient1013" cx="611.81" cy="204.77" r="5.5555" gradientTransform="matrix(1.0097 1.533 -1.1337 .75727 -381.56 -1089.3)" gradientUnits="userSpaceOnUse">
   <stop stop-color="#e6f2f2" offset="0"/>
   <stop stop-color="#ccdfe9" offset="1"/>
  </radialGradient>
 </defs>
 <path d="m8 0c-4.4445 0-8 3.5803-8 7.9439 0 4.4756 3.5555 8.0561 8 8.0561 4.4445 0 8-3.5802 8-7.9439 0-4.4755-3.5555-8.0561-8-8.0561zm0 2.4605c3.1111 0 5.5547 2.4627 5.5547 5.5956 0 3.133-2.4436 5.5936-5.5547 5.5936-3.1111 0-5.5547-2.5726-5.5547-5.5936 0-3.1329 2.4436-5.5956 5.5547-5.5956z" fill="#9ca2a2" stroke-width="1.115"/>
 <path d="m8 2.4613c-3.1111 0-5.5555 2.4616-5.5555 5.5945 0 3.021 2.4445 5.5945 5.5555 5.5945 3.1111 0 5.5555-2.4616 5.5555-5.5945 0-3.1329-2.4445-5.5945-5.5555-5.5945z" fill="url(#radialGradient1013)" stroke-width="1.115"/>
 <path d="m7.6667 9.0628c-.44446-.11186-.77777-.55943-.77777-1.007v-3.3567c0-.67136.44439-1.1189 1.1111-1.1189s1.1111.4475 1.1111 1.1189v3.1329c1.2222 1.2307 2.2222 3.5805 2.2222 3.5805s-2.4444-1.1189-3.6666-2.3497z" fill="#64696c" stroke-width="1.115"/>
</svg>
