<svg width="16" height="16" version="1.1" viewBox="0 0 16 16" xmlns="http://www.w3.org/2000/svg" xmlns:xlink="http://www.w3.org/1999/xlink">
 <defs>
  <linearGradient id="linearGradient973" x1="593.33" x2="606.98" y1="200.93" y2="214.06" gradientTransform="translate(-592 -199.96)" gradientUnits="userSpaceOnUse">
   <stop stop-color="#f9f9fb" offset=".05"/>
   <stop stop-color="#dddcdc" offset="1"/>
  </linearGradient>
 </defs>
 <path d="m.78306 6.6297 8.7287 8.5045 5.7907-5.5737-8.4961-8.6496-6.2561-.30705z" fill="url(#linearGradient973)"/>
 <path d="m0 .040989v7l8.5 8.3496c.79785.78377 1.1592.8408 2 0l4.8496-4.8496c.82216-.82216.80624-1.1793 0-2l-8.3496-8.5zm1 1h5.5l8.3496 8.5-5.3496 5.3496-8.5-8.3496zm1 1v3l1 1 3-3-1-1zm8.207 4.2656-.70703.70704 3.2285 3.2266.70703-.70703zm-1.5 1.5-.70703.70704 3.2285 3.2266.70703-.70703z" fill="#9ca2a2"/>
</svg>
