<svg width="16" height="16" version="1.1" viewBox="0 0 16 16" xmlns="http://www.w3.org/2000/svg" xmlns:xlink="http://www.w3.org/1999/xlink">
 <defs>
  <linearGradient id="linearGradient7226-9" x1="24.512" x2="24.474" y1="1080.5" y2="1120.5" gradientTransform="matrix(.2781 0 0 .27742 1.4274 -299.36)" gradientUnits="userSpaceOnUse">
   <stop stop-color="#f9f3ac" offset="0"/>
   <stop stop-color="#ffdc46" offset="1"/>
  </linearGradient>
 </defs>
 <path d="m5 4-3.5 7h3.041a4 4 0 0 0 3.459 2 4 4 0 0 0 3.459-2h3.041l-3.5-7z" fill="#eceef2" style="paint-order:fill markers stroke"/>
 <path d="m1 12.125v2.875h14v-2.875h-2.9727c-.62441 1.0815-2.7785 1.873-4.0273 1.875-1.2488-.002-3.4029-.79348-4.0273-1.875z" fill="#d4e1eb" style="paint-order:fill markers stroke"/>
 <path d="m4 3-4 8v5h16v-5l-4-8zm1 1h6l3.5 7h-3.041a4 4 0 0 1-3.459 2 4 4 0 0 1-3.459-2h-3.041zm-4 8.125h2.9727c.62441 1.0815 2.7785 1.873 4.0273 1.875 1.2488-.002 3.4029-.79348 4.0273-1.875h2.9727v2.875h-14z" fill="#9ca2a2" style="paint-order:fill markers stroke"/>
 <path d="m4.8947 8.5145c.18661-1.8726.18661-1.8726-.80606-2.8286-1.4564-1.4026-1.3318-1.8747.55681-2.11 1.5413-.19211 1.5533-.20099 2.2827-1.6845.42656-.86763.91737-1.4914 1.1735-1.4914.25664 0 .74882.62749 1.1798 1.5042.73599 1.497.74686 1.5051 2.2827 1.6965 1.8783.23411 1.9988.6905.55053 2.0853-.99268.95603-.99268.95603-.80606 2.8286.21952 2.203.02 2.3194-1.9756 1.1527-1.2314-.71993-1.2314-.71993-2.4629 0-1.9956 1.1666-2.1951 1.0503-1.9756-1.1527z" fill="url(#linearGradient7226-9)"/>
 <path d="m8.2511-.00039288c-.26178 0-.40418.11099-.53192.2147-.12771.10371-.23981.22826-.35396.3733-.22829.2901-.45791.6668-.6731 1.1044-.34635.70437-.51506.98458-.64604 1.0812-.13097.0967-.40937.15637-1.1412.24758-.46831.0583-.84006.12947-1.1528.25144-.31275.12198-.62527.33571-.72147.70019-.0962.36449.048.68944.23985.97678.19177.28734.4634.57922.82204.92456.47181.45433.61802.61038.67117.7969.0532.18651.0346.59753-.0541 1.4874-.053.53126-.0837.94284-.062 1.2901.0109.17365.0327.33348.0948.49517.0621.16169.18117.33488.35976.43907.35718.20837.7091.10205 1.0406-.0309.33151-.133.70715-.34199 1.1876-.62283.58528-.34212.82101-.44487.92069-.44487.0997 0 .33541.10275.92068.44487.48044.28084.85804.48983 1.1896.62283.33152.133.6815.23932 1.0387.0309.1786-.10418.29767-.27738.35977-.43907.0621-.16169.0839-.32152.0948-.49517.0219-.34728-.009-.75886-.0619-1.2901-.0888-.88988-.10732-1.3009-.0541-1.4874.0532-.18652.19936-.34257.67117-.7969.35636-.34316.62707-.63249.81817-.91682.19111-.28433.33797-.60673.24179-.97098-.0962-.36426-.40889-.5746-.71954-.69439-.31063-.11979-.68167-.18958-1.147-.24758-.72926-.0908-1.0042-.1482-1.1354-.24564-.13113-.0975-.30036-.38198-.64989-1.0928-.21715-.4416-.44987-.82214-.67891-1.1141-.11453-.14598-.22606-.27098-.35396-.37524-.12792-.10425-.27112-.21663-.53386-.21663zm0 1.0832c.0367.0385.0642.0614.11025.11993.16829.21452.37416.54841.56673.94003.35008.71194.53578 1.1431.9497 1.4507.41392.30757.87278.34222 1.6035.43326.42743.0533.74297.12207.91297.18761.16998.0656.13442.0874.11798.0252-.0164-.0622.0125-.0124-.10639.16442-.11882.17679-.3508.43853-.68277.75822-.47181.45432-.79777.75229-.93616 1.2379-.1384.4856-.0675.96503.0213 1.8549.0515.51567.0723.90383.058 1.1315-.004.0635-.0105.0771-.0175.11219.007-.009.041-.00096-.11992-.0658-.23104-.0927-.58805-.28542-1.0561-.559-.58528-.34212-.93604-.58027-1.4216-.58027-.4856 0-.83443.23815-1.4197.58027-.46806.27358-.82696.4663-1.058.559-.16082.0644-.12677.057-.11992.0658-.007-.035-.0135-.0488-.0175-.11219-.0143-.22769.009-.61585.06-1.1315.0888-.88988.15967-1.3693.0213-1.8549-.1384-.48561-.46629-.78358-.93809-1.2379-.33356-.3212-.56545-.58531-.68473-.76402-.11927-.17871-.0911-.22985-.10637-.17215-.0153.0578-.0473.0358.12378-.0309.17111-.0667.48557-.13798.91489-.19149.73335-.0914 1.193-.12754 1.6073-.43326.41434-.30572.59887-.73538.94583-1.441.19029-.387.39564-.71789.56286-.93036.0451-.0574.0721-.0783.10831-.11606z" color="#000000" color-rendering="auto" dominant-baseline="auto" fill="#cd9a34" image-rendering="auto" shape-rendering="auto" solid-color="#000000" style="font-feature-settings:normal;font-variant-alternates:normal;font-variant-caps:normal;font-variant-ligatures:normal;font-variant-numeric:normal;font-variant-position:normal;isolation:auto;mix-blend-mode:normal;shape-padding:0;text-decoration-color:#000000;text-decoration-line:none;text-decoration-style:solid;text-indent:0;text-orientation:mixed;text-transform:none;white-space:normal"/>
</svg>
