<svg xmlns="http://www.w3.org/2000/svg" width="16" height="16" viewBox="0 0 16 16">
  <defs>
    <linearGradient id="linearGradient8900" x1="24.7" x2="18.93" y1="2.28" y2="17" gradientTransform="translate(-16)" gradientUnits="userSpaceOnUse">
      <stop offset="0" stop-color="#dfc65b"/>
      <stop offset="1" stop-color="#af9b47"/>
    </linearGradient>
    <linearGradient id="linearGradient8902" x1="525.68" x2="525.68" y1="191.95" y2="204.63" gradientTransform="matrix(.83334 0 0 .875 -431.34 -164.38)" gradientUnits="userSpaceOnUse">
      <stop offset="0" stop-color="#fcf7c1"/>
      <stop offset="1" stop-color="#e9cf5f"/>
    </linearGradient>
  </defs>
  <g id="folder" stroke="url(#linearGradient8900)" stroke-width="2" paint-order="markers stroke fill">
    <path fill="#f2e287" d="M12.19 8v6h1.31c.27 0 .5-.18.5-.5v-5c0-.31-.2-.5-.5-.5z"/>
    <path fill="url(#linearGradient8902)" d="M2.93 1h8.14c.52 0 .93.41.93.93v12.14c0 .52-.41.93-.93.93H2.93a.93.93 0 0 1-.93-.93V1.93c0-.53.4-.93.93-.93z"/>
  </g>
  <path id="rss-shadow" fill="#fff" d="M10.6 13.94h-.86a.45.45 0 0 1-.46-.45s.18-2.04-1.82-4.09c-1.43-1.7-4-1.81-4-1.81-.3 0-.46-.17-.46-.4v-.8c0-.24.17-.41.46-.41 0 0 3.6.23 5.48 2.55 1.89 1.76 2.06 5 2.06 5 0 .22-.12.4-.4.4zm-7.14-5.1s2.11.28 3.31 1.36c1.2 1.13 1.43 3.35 1.43 3.35 0 .22-.06.45-.29.45h-.83c-.23 0-.35-.17-.35-.45 0 0 .06-1.37-1.03-2.4a4.16 4.16 0 0 0-2.22-.8c-.3 0-.46-.15-.46-.38v-.74c0-.22.17-.4.46-.4zm.68 2.83a1.14 1.14 0 0 1 0 2.27c-.63 0-1.14-.5-1.14-1.13s.51-1.13 1.14-1.13z" opacity=".5"/>
  <path id="rss" fill="#e29507" d="M10.6 12.94h-.86a.45.45 0 0 1-.46-.45s.18-2.04-1.82-4.09c-1.43-1.7-4-1.81-4-1.81-.3 0-.46-.17-.46-.4v-.8c0-.24.17-.41.46-.41 0 0 3.6.23 5.48 2.55 1.89 1.76 2.06 5 2.06 5 0 .22-.12.4-.4.4zm-7.14-5.1s2.11.28 3.31 1.36c1.2 1.13 1.43 3.35 1.43 3.35 0 .22-.06.45-.29.45h-.83c-.23 0-.35-.17-.35-.45 0 0 .06-1.37-1.03-2.4a4.16 4.16 0 0 0-2.22-.8c-.3 0-.46-.15-.46-.38v-.74c0-.22.17-.4.46-.4zm.68 2.83a1.14 1.14 0 0 1 0 2.27c-.63 0-1.14-.5-1.14-1.13s.51-1.13 1.14-1.13z"/>
</svg>
