<svg xmlns="http://www.w3.org/2000/svg" xmlns:xlink="http://www.w3.org/1999/xlink" width="378" height="38" viewBox="0 0 378 38">
    <style>
    use:not(:target) {
        display: none;
    }
    /* Normal */
    use {
        fill: url(#globalGradient);
        filter: url(#insetShadow);
    }
    use #bookmark-none-inverted,
    use #newwindow-inverted {
        visibility: hidden;
    }
    /* Inverted */
    use[id$="-inverted"] #bookmark-none,
    use[id$="-inverted"] #newwindow {
        visibility: hidden;
    }
    use[id$="-inverted"] #bookmark-none-inverted,
    use[id$="-inverted"] #newwindow-inverted {
        visibility: visible;
    }
    use[id$="-inverted"] #bookmark-added,
    use[id$="-inverted"] #bookmarks-overlay{
        fill: #fff;
        filter: none;
    }
    use[id$="-inverted"] {
        fill: #fff;
        filter: url(#dropShadow);
    }
    </style>
    <defs>
        <linearGradient id="bm-none" x1="365" x2="365" y1="0" y2="15" gradientUnits="userSpaceOnUse">
            <stop stop-color="#c9c9c9" offset="0"/>
            <stop stop-color="#fff" offset="1"/>
        </linearGradient>
        <linearGradient id="bm-created" x1="365" x2="365" y1="20" y2="35" gradientUnits="userSpaceOnUse">
            <stop stop-color="#e6a324" offset="0"/>
            <stop stop-color="#fae165" offset="1"/>
        </linearGradient>
        <radialGradient id="globalGradient" cy=".7">
            <stop stop-color="#87939b" offset=".05"/>
            <stop stop-color="#45555f" offset="1"/>
        </radialGradient>
        <radialGradient id="downloadGradient" cx="96" cy="12" r="7" gradientUnits="userSpaceOnUse">
            <stop stop-color="#12d92d" offset=".05"/>
            <stop stop-color="#01b222" offset="1"/>
        </radialGradient>
        <filter id="insetShadow">
            <feFlood flood-color="rgb(0,0,0)" flood-opacity=".5" result="flood"/>
            <feComposite in="flood" in2="SourceGraphic" operator="out" result="composite1"/>
            <feGaussianBlur in="composite1" result="blur" stdDeviation="2"/>
            <feOffset dx="0" dy="0" result="offset"/>
            <feComposite in="offset" in2="SourceGraphic" operator="atop" result="composite2"/>
        </filter>
        <filter id="bmInsetShadow" color-interpolation-filters="sRGB">
            <feFlood flood-color="rgb(0,0,0)" result="flood"/>
            <feComposite in="flood" in2="SourceGraphic" operator="out" result="composite1"/>
            <feGaussianBlur in="composite1" result="blur" stdDeviation="0.5"/>
            <feOffset dx="0" dy="0" result="offset"/>
            <feComposite in="offset" in2="SourceGraphic" operator="atop" result="composite2"/>
        </filter>
        <filter id="dropShadow" color-interpolation-filters="sRGB">
            <feFlood flood-color="rgb(0,0,0)" flood-opacity=".5" result="flood"/>
            <feComposite in="flood" in2="SourceGraphic" operator="in" result="composite1"/>
            <feGaussianBlur in="composite1" result="blur" stdDeviation="0.5"/>
            <feOffset dx="0" dy="0" result="offset"/>
            <feComposite in="SourceGraphic" in2="offset" result="fbSourceGraphic"/>
            <feColorMatrix in="fbSourceGraphic" result="fbSourceGraphicAlpha" values="0 0 0 -1 0 0 0 0 -1 0 0 0 0 -1 0 0 0 0 1 0"/>
            <feFlood flood-color="rgb(0,0,0)" flood-opacity=".5" in="fbSourceGraphic" result="flood"/>
            <feComposite in="flood" in2="fbSourceGraphic" operator="in" result="composite1"/>
            <feGaussianBlur in="composite1" result="blur" stdDeviation="0.5"/>
            <feOffset dx="0" dy="0" result="offset"/>
            <feComposite in="fbSourceGraphic" in2="offset" result="fbSourceGraphic"/>
            <feColorMatrix in="fbSourceGraphic" result="fbSourceGraphicAlpha" values="0 0 0 -1 0 0 0 0 -1 0 0 0 0 -1 0 0 0 0 1 0"/>
            <feFlood flood-color="rgb(0,0,0)" flood-opacity=".5" in="fbSourceGraphic" result="flood"/>
            <feComposite in="flood" in2="fbSourceGraphic" operator="in" result="composite1"/>
            <feGaussianBlur in="composite1" result="blur" stdDeviation="0.5"/>
            <feOffset dx="0" dy="0" result="offset"/>
            <feComposite in="fbSourceGraphic" in2="offset" result="fbSourceGraphic"/>
            <feColorMatrix in="fbSourceGraphic" result="fbSourceGraphicAlpha" values="0 0 0 -1 0 0 0 0 -1 0 0 0 0 -1 0 0 0 0 1 0"/>
            <feFlood flood-color="rgb(0,0,0)" flood-opacity=".5" in="fbSourceGraphic" result="flood"/>
            <feComposite in="flood" in2="fbSourceGraphic" operator="in" result="composite1"/>
            <feGaussianBlur in="composite1" result="blur" stdDeviation="0.5"/>
            <feOffset dx="0" dy="0" result="offset"/>
            <feComposite in="fbSourceGraphic" in2="offset" result="fbSourceGraphic"/>
            <feColorMatrix in="fbSourceGraphic" result="fbSourceGraphicAlpha" values="0 0 0 -1 0 0 0 0 -1 0 0 0 0 -1 0 0 0 0 1 0"/>
            <feFlood flood-color="rgb(0,0,0)" flood-opacity=".5" in="fbSourceGraphic" result="flood"/>
            <feComposite in="flood" in2="fbSourceGraphic" operator="in" result="composite1"/>
            <feGaussianBlur in="composite1" result="blur" stdDeviation="0.5"/>
            <feOffset dx="0" dy="0" result="offset"/>
            <feComposite in="fbSourceGraphic" in2="offset" result="composite2"/>
        </filter>
        <g id="toolbar">
            <path id="back" d="m14.7 10.7c-.23572.23575-.69988.3-.69988.3h-5.0001l2.132 2.0856c.51942.50811.595 1.2729.198 1.6979l-.793.9549c-.396.424-1.091.318-1.587-.212l-5.355-5.8356-.595-.7439.595-.743 5.256-5.7295c.496-.531 1.19-.637 1.587-.212l.794.9549c.396.425.297 1.1669-.198 1.6979l-2.034 2.0848h4.9999s.46444.064342.70012.3c.23572.23569.29988.7.29988.7l.00025 2s-.06444.46428-.30012.7z"/>
            <path id="back-large" d="m16.442 29.733c-.275.27503-.81651.35-.81651.35h-6.6252l2.4873 2.5165c.59591.60292.69416 1.485.231 1.9809l-.92516 1.114c-.462.49466-1.2728.371-1.8515-.24733l-6.2474-6.8081-.69416-.86787.69416-.86682 6.1319-6.6843c.57866-.61949 1.3883-.74316 1.8515-.24733l.92632 1.114c.462.49583.3465 1.3614-.231 1.9809l-2.3728 2.3488h6.6249s.54184.07506.8168.35c.275.27497.34985.81666.34985.81666l.000146 2.3333s-.07518.54166-.35014.81666z" stroke-width="1.1667"/>
            <path id="forward" d="m21.3 10.7c.23572.23575.69988.3.69988.3h5.0001l-2.132 2.0856c-.51942.50811-.595 1.2729-.198 1.6979l.793.9549c.396.424 1.091.318 1.587-.212l5.355-5.8356.595-.7439-.595-.743-5.256-5.7295c-.496-.531-1.19-.637-1.587-.212l-.794.9549c-.396.425-.297 1.1669.198 1.6979l2.034 2.0848h-4.9999s-.46444.064342-.70012.3c-.23572.23569-.29988.7-.29988.7l-.00025 2s.06444.46428.30012.7z"/>
            <path id="stop" d="m51.5 4.6496-4.2662 4.3001 4.2662 4.299-2.1331 2.1496-4.3669-4.1972-4.2662 4.299-2.1331-2.1496 4.2662-4.4019-4.3669-4.299 2.1331-2.1496 4.3669 4.3001 4.2662-4.3001z" stroke-width="1.0833"/>
            <path id="reload" d="m69 9h-7l2.8-2.8c-.7-.5-1.4-.7-2.3-.7-2.2 0-4 1.8-4 4s1.8 4 4 4c1.399 0 2.7-.7 3.399-1.9l2.301 1c-1.101 2-3.2 3.4-5.7 3.4-3.601 0-6.5-2.9-6.5-6.5s2.899-6.5 6.5-6.5c1.5 0 2.899.5 4.1 1.4l2.4-2.4z"/>
            <path id="home" d="m76 9h-3l8-7 8 7h-3v6.5h-4v-3.5h-2v3.5h-4z"/>
            <path id="download" d="m91.5 9h4.453v-7h6.093v7h4.454l-7.5 7z"/>
            <path id="download-glow" d="m91.5 27h4.453v-7h6.093v7h4.454l-7.5 7z" fill="url(#downloadGradient)"/>
            <path id="history" d="m117 2c-3.866 0-7 3.134-7 7s3.134 7 7 7 7-3.134 7-7-3.134-7-7-7zm0 2c2.761 0 5 2.238 5 5s-2.239 5-5 5c-2.762 0-5-2.238-5-5s2.239-5 5-5zm-.7 1.2c-.2357.2357-.3.8-.3.8v4l4 2-2-3v-3s-.0643-.5643-.3-.8-.7-.2-.7-.2-.4643-.035702-.7.2z"/>
            <g id="bookmarks">
                <path id="bookmarks-star" d="m131 2v14h9.9492c.99175-.25844 1.7672-1.0383 2-2v-10c-.23283-.9617-1.0082-1.7416-2-2h-2.5zm6.1152 2.416 1.0547 1.7715s.29209.48783.51953.64258c.21313.14495.73828.22852.73828.22852h2.1562l-1.498 2.4336s-.21789.47789-.32617.7168c-.16271.35756.005.98255.0586 1.5664.0848.91844.15039 1.8066.15039 1.8066l-1.75-.89453s-.71714-.33732-1.1016-.33789c-.45203 0-1.2988.39258-1.2988.39258l-1.7539.8418s.12894-.80101.26758-1.6816c.0917-.57922.34458-1.2385.14063-1.6367-.11058-.21656-.33204-.64844-.33204-.64844l-1.7246-2.502h2.1426s.69711-.049193.98243-.22852c.21656-.13521.48242-.5957.48242-.5957z"/>
                <path id="bookmarks-overlay" d="m129 2c-.99175.25844-1.7672 1.0383-2 2v10c.23283.9617 1.0082 1.7416 2 2h2.5v-14z" fill="#596c77"/>
                <path id="bookmarks-divider" d="m131.5 2v14" stroke="#2f3941" stroke-width=".5"/>
            </g>
            <path id="print" d="m160 14h-2l1 2h-12l1-2h-2c-.601 0-1-.4-1-1v-5c0-.6.70113-.63544 1-1 .38098-.46472.61902-1.0353 1-1.5.29887-.36456.399-1 1-1v-1.5c0-.6.399-1 1-1h8c.6 0 1 .4 1 1v1.5c.6 0 .70113.63544 1 1 .38098.46472.61902 1.0353 1 1.5.29887.36456 1 .4 1 1v5c0 .6-.4 1-1 1zm-11.5-5h-1c-.3 0-.5.2-.5.5s.2.5.5.5h1c.3 0 .5-.2.5-.5s-.2-.5-.5-.5zm8.5-5c0-.6-.4-1-1-1h-6c-.601 0-1 .4-1 1v3c0 .6.399 1 1 1h6c.6 0 1-.4 1-1zm-.9 9h-6.2l-.899 2h8z"/>
            <path id="newtab" d="m170.93 2-4.0156.00195c0 .00178-.87681.21669-.87695 1.498v2.8164s-.0732.36438-.19922.48438c-.14198.135-.55078.19922-.55078.19922s-.53242-.057-.7754 0c-.36297.086-.73599.236-1 .5-.26399.264-.41502.637-.5 1-.038.162 0 .5 0 .5v5.5371s.24003.71089.5.96289c.27398.267 1.0352.5 1.0352.5h13.096s.60287-.276.83985-.5c.21699-.205.49023-.74219.49023-.74219v-5.7578c.026-.322.038-.338 0-.5-.086-.363-.22624-.736-.49023-1-.26398-.264-.63802-.415-1-.5-.22799-.054-.69922 0-.69922 0s-.44657-.056219-.60156-.19922c-.12799-.119-.19922-.48438-.19922-.48438l.00195-2.8164c.00015-1.3953-1.0176-1.5-1.0176-1.5zm-.79101 5h1.7148v2.1426h2.1426v1.7148h-2.1426v2.1426h-1.7148v-2.1426h-2.1426v-1.7148h2.1426z"/>
            <path id="newwindow" d="m182.44 2c-.91396.27814-1.152.81144-1.4375 1.6875v10.438c.21642 1.33.75257 1.6361 2.0625 1.875h11.938c1.3047-.2042 1.7048-.57308 2-1.875v-10.125c-.1981-1.2277-.5002-1.6297-1.6875-2zm7.5625 1h1v1h-1zm2 0h1v1h-1zm2 0h2v1h-2zm-12 3h14v9h-14zm6.1426 1v2.1426h-2.1426v1.7148h2.1426v2.1426h1.7148v-2.1426h2.1426v-1.7148h-2.1426v-2.1426z"/>
            <path id="newwindow-inverted" d="m182.44 2c-.91396.27814-1.152.81144-1.4375 1.6875v10.438c.21642 1.33.75257 1.6361 2.0625 1.875h11.938c1.3047-.2042 1.7048-.57308 2-1.875v-10.125c-.1981-1.2277-.5002-1.6297-1.6875-2zm7.5625 1h1v1h-1zm2 0h1v1h-1zm2 0h2v1h-2zm-11 3h12v8h-12zm5.1426 1v2.1426h-2.1426v1.7148h2.1426v2.1426h1.7148v-2.1426h2.1426v-1.7148h-2.1426v-2.1426z"/>
            <path id="cut" d="m212.7 16c-.79707 0-1.4951-.2-2.2922-1.3-.79807-1.1-1.6952-2.5-1.6952-2.5s-.69706-.9-1.0971-1.6c-.49805-.7-1.0971-.5-1.0971-.5s-2.8912-4.7-3.3903-5.4c-.59805-1 .59906-2.7.59906-2.7l4.3874 7s1.3961 1.9 1.8942 2.3c.49904.4 1.3961-.4 2.7922.9 1.8942 1.8 1.2961 3.8-.10101 3.8zm-.29802-2.9c-.89708-1-1.6942-.9-1.8942-.6s0 1.2.39804 1.7c.39803.5.79806.7 1.3961.7.59905.1 1.0971-.7.10001-1.8zm-3.7893-4.7-1.1961-1.8 2.8912-4.6s1.1961 1.7.59906 2.7c-.29903.4-1.3961 2.3-2.2942 3.7zm-4.5854 2.899c.29903-.3.99709-1.1 1.3961-1.7l.79806 1.2c-.39803.6-.89707 1.4-.89707 1.4s-.89608 1.4-1.6942 2.5c-.69806 1.1-1.3961 1.3-2.2932 1.3-1.3961 0-2.0942-2-.10001-3.8 1.3941-1.199 2.2912-.499 2.7902-.9zm-2.3932 1.801c-.89708 1-.39803 1.8.19902 1.8.59905 0 .99709-.2 1.3961-.7.39804-.5.59806-1.5.39804-1.7-.29803-.3-1.0961-.4-1.9932.6z"/>
            <path id="copy" d="m231 16h-6c-.601 0-1-.4-1-1v-8c0-.6.399-1 1-1h5l2 2v7c0 .6-.4 1-1 1zm-2-9v2h2zm-6-1.1v6.1h-4c-.601 0-1-.4-1-1v-8c0-.6.399-1 1-1h5l2 2v1.3h-2.5c-.3.1-.5.3-.5.6zm0-2.9v2h2z"/>
            <path id="paste" d="m246.85 16h-7.7014c-.88016 0-1.6493-.7-1.6493-1.5v-9c0-.8.77014-1.5 1.6493-1.5h1.6503s0-2 2.2004-2 2.2004 2 2.2004 2h1.6493c.88016 0 1.6503.7 1.6503 1.5v9c.001.799-.76914 1.5-1.6493 1.5zm-.88016-11-1.2102-.5s0-1.5-1.7603-1.5-1.7603 1.5-1.7603 1.5l-1.2112.5-.5501 1h7.1523zm.11002 1.7h-5.1709l-3.3016 1.7 3.0806 4.9 7.2623-3.8z"/>
            <path id="fullscreen" d="m265 12v-6l3 3zm-7 1h6l-3 3zm0-1v-6h6v6zm5-4h-4v3h4zm-2-6 3 3h-6zm-4 4v6l-3-3z"/>
            <path id="minus" d="m274 8h10v2h-10z"/>
            <path id="plus" d="m302 10h-4v4h-2v-4h-4v-2h4v-4h2v4h4z"/>
            <path id="sync" d="m321.96 9.359c-.0996.58805-.19907 1.175-.39904 1.665-.39904 1.273-2.4972 3.231-2.4972 3.231l1.2301 1.745-4.9273 6e-6v-6.151s.89889 1.468 1.398 2.056c1.1991-.58802 1.9981-1.763 2.0982-2.938.10109-.881-.19905-1.664-.59902-2.251-.18813-.32294-.42109-.57996-.68685-.79319-.30005-.23897-1.0121-.57798-1.0121-.57798l.0174-3.3307c1.0319.26806 1.4999.38642 2.8578 1.3687 1.6772 1.251 2.7822 3.502 2.5202 5.976zm-6.9926-1.958s-1.0988-1.4682-1.5991-1.958c-1.3981.686-2.1972 1.958-2.1971 3.329.39151 1.955 1.1549 2.8781 2.8705 3.728v3.5c-1.1482-.14515-2.8966-1.1441-3.7606-2.018-1.6421-1.695-2.5632-3.735-2.2063-6.189.1-.68502.30006-1.37.49903-1.958.40011-1.077 1.1001-1.958 2.0992-2.643.0997-.098323.199-.098023.29929-.1956-.39905-.39199-1.2861-.99644-1.2861-.99644l5.3554-1.3e-6z"/>
            <path id="rss" d="m339.3 15.9h-1.4999c-.39997 0-.79995-.3-.79995-.8 0 0 .29998-3.6-3.1998-7.2-2.4998-3-6.9995-3.2-6.9995-3.2-.49996 0-.79994-.3-.79994-.7v-1.4c0-.4.29998-.7.79994-.7 0 0 6.2996.4 9.5993 4.5 3.2998 3.1 3.6007 8.8 3.6007 8.8-.001.4-.20099.7-.70095.7zm-12.499-9s3.6997.5 5.7996 2.4c2.0998 2 2.4998 5.9 2.4998 5.9 0 .4-.1.8-.49996.8h-1.4999c-.39997 0-.59995-.3-.59995-.8 0 0 .1-2.4-1.8009-4.2-1.4999-1.3-3.8987-1.4-3.8987-1.4-.49996 0-.79994-.3-.79994-.7v-1.3c0-.4.29998-.7.79994-.7zm1.1999 5c1.0999 0 1.9998.9 1.9998 2s-.89993 2-1.9998 2c-1.1009 0-1.9999-.9-1.9999-2s.89994-2 1.9999-2z"/>
            <path id="webrtc" d="m344.5 5s.0643-.4643.3-.7.7-.3.7-.3h7.5s.4643.064298.7.3c.2357.2357.3.7.3.7v2l4.0245-3-.049 10-3.9755-3v2s-.0643.4643-.3.7-.7.3-.7.3h-7.5s-.4643-.0643-.7-.3c-.2357-.2357-.3-.7-.3-.7z"/>
            <path id="bookmark-none" d="m369.2 1-1.908 3.2732s-.461.8031-.839 1.0391c-.498.313-1.7185.3987-1.7185.3987h-3.737l3.0085 4.3646s.387.755.58 1.133c.356.6951-.084 1.8452-.244 2.8562-.242 1.5371-.467 2.9352-.467 2.9352l3.06-1.4671s1.477-.686 2.266-.686c.671.001 1.925.588 1.925.588l3.053 1.5641s-.112-1.5501-.26-3.1532c-.093-1.0191-.388-2.1121-.104-2.7362.189-.417.57-1.252.57-1.252l2.613-4.2453h-3.763s-.917-.146-1.289-.399c-.397-.2701-.906-1.1221-.906-1.1221z" fill="url(#bm-none)" filter="url(#bmInsetShadow)"/>
            <path id="bookmark-none-inverted" d="m369.2 1-1.9082 3.2734s-.46184.80306-.83984 1.0391c-.498.313-1.7188.39844-1.7188.39844h-3.7363l3.0078 4.3652s.38708.75481.58008 1.1328c.356.6951-.0841 1.8445-.24414 2.8555-.242 1.5371-.4668 2.9355-.4668 2.9355l3.0606-1.4668s1.4766-.68555 2.2656-.68555c.671.001 1.9258.58789 1.9258.58789l3.0527 1.5625s-.11177-1.5492-.25976-3.1523c-.093-1.0191-.38752-2.1122-.10352-2.7363.189-.417.56836-1.252.56836-1.252l2.6133-4.2461h-3.7617s-.91706-.14544-1.2891-.39844c-.397-.2701-.90625-1.1211-.90625-1.1211zm-.0762 3 1.1504 1.9316s.31633.53236.56446.70117c.23249.15812.80664.25.80664.25h2.3516l-1.6328 2.6543s-.23929.52063-.35742.78125c-.17749.39005.008 1.074.0664 1.7109.09249 1.0019.16211 1.9707.16211 1.9707l-1.9082-.97852s-.78376-.36656-1.2031-.36719c-.4931 0-1.416.42969-1.416.42969l-1.9121.91602s.13977-.87333.29101-1.834c.1-.63186.37484-1.3507.15235-1.7852-.12063-.23624-.36133-.70898-.36133-.70898l-1.8809-2.7266h2.3359s.76298-.054381 1.0742-.25c.23624-.1475.52343-.64844.52343-.64844z"/>
            <path id="bookmark-added" d="m369.2 19-1.908 3.2732s-.461.8031-.839 1.0391c-.498.313-1.718.399-1.718.399h-3.737l3.008 4.3643s.387.755.58 1.133c.356.6951-.084 1.8452-.244 2.8562-.242 1.5371-.467 2.9352-.467 2.9352l3.06-1.4671s1.477-.686 2.266-.686c.671.001 1.925.588 1.925.588l3.053 1.5641s-.112-1.5501-.26-3.1532c-.093-1.0191-.388-2.1121-.104-2.7362.189-.417.57-1.252.57-1.252l2.613-4.2453h-3.763s-.917-.146-1.289-.399c-.397-.2701-.906-1.1221-.906-1.1221z" fill="url(#bm-created)" filter="url(#bmInsetShadow)"/>
        </g>
    </defs>
    <use id="state" xlink:href="#toolbar"/>
    <use id="state-inverted" xlink:href="#toolbar"/>
</svg>