<svg xmlns="http://www.w3.org/2000/svg" xmlns:xlink="http://www.w3.org/1999/xlink" id="strataToolbarSVG" width="378" height="38" version="1.1" viewBox="0 0 378 38">
  <defs>
    <linearGradient id="bm-none" x1="367" x2="367" y1=".75" y2="13.2" gradientTransform="translate(-315 -320)" gradientUnits="userSpaceOnUse">
      <stop offset="0" stop-color="#c9c9c9"/>
      <stop offset="1" stop-color="#fff"/>
    </linearGradient>
    <linearGradient id="bm-created" x1="684" x2="684" y1="317" y2="332" gradientTransform="translate(-315 -296)" gradientUnits="userSpaceOnUse">
      <stop offset="0" stop-color="#e6a324"/>
      <stop offset="1" stop-color="#fae165"/>
    </linearGradient>
    <radialGradient id="globalGradient" cy=".7">
      <stop offset=".05" stop-color="#87939b"/>
      <stop offset="1" stop-color="#45555f"/>
    </radialGradient>
    <filter id="filter2164" width="1" height="1" x="0" y="0" color-interpolation-filters="sRGB">
      <feFlood flood-color="#000" result="flood"/>
      <feComposite in="flood" in2="SourceGraphic" operator="out" result="composite1"/>
      <feGaussianBlur in="composite1" result="blur" stdDeviation=".5"/>
      <feOffset result="offset"/>
      <feComposite in="offset" in2="SourceGraphic" operator="atop" result="composite2"/>
    </filter>
    <radialGradient id="radialGradient2993" cx="148" cy="10.9" r="6.48" gradientTransform="scale(.926 1.08)" gradientUnits="userSpaceOnUse" xlink:href="#globalGradient"/>
    <filter id="insetShadow" color-interpolation-filters="sRGB">
      <feFlood flood-color="#000" result="flood"/>
      <feComposite in="flood" in2="SourceGraphic" operator="out" result="composite1"/>
      <feGaussianBlur in="composite1" result="blur" stdDeviation="1"/>
      <feOffset result="offset"/>
      <feComposite in="offset" in2="SourceGraphic" operator="atop" result="fbSourceGraphic"/>
      <feColorMatrix in="fbSourceGraphic" result="fbSourceGraphicAlpha" values="0 0 0 -1 0 0 0 0 -1 0 0 0 0 -1 0 0 0 0 1 0"/>
      <feFlood flood-color="#FFF" flood-opacity=".471" result="flood"/>
      <feComposite in="flood" in2="fbSourceGraphic" operator="in" result="composite1"/>
      <feGaussianBlur in="composite1" result="blur" stdDeviation=".6"/>
      <feOffset result="offset"/>
      <feComposite in="fbSourceGraphic" in2="offset" result="fbSourceGraphic"/>
      <feColorMatrix in="fbSourceGraphic" result="fbSourceGraphicAlpha" values="0 0 0 -1 0 0 0 0 -1 0 0 0 0 -1 0 0 0 0 1 0"/>
      <feFlood flood-color="#FFF" result="flood"/>
      <feComposite in="flood" in2="fbSourceGraphic" operator="in" result="composite1"/>
      <feGaussianBlur in="composite1" result="blur" stdDeviation=".6"/>
      <feOffset result="offset"/>
      <feComposite in="fbSourceGraphic" in2="offset" result="composite2"/>
    </filter>
  </defs>
  <g id="toolbar" filter="url(#insetShadow)">
    <path id="back" fill="url(#globalGradient)" d="M14.7 10.7c-.236.236-.7.3-.7.3H9l2.13 2.09c.519.508.595 1.27.198 1.7l-.793.955c-.396.424-1.09.318-1.59-.212l-5.36-5.84-.595-.744.595-.743 5.26-5.73c.496-.531 1.19-.637 1.59-.212l.794.955c.396.425.297 1.17-.198 1.7l-2.03 2.08h5s.464.0643.7.3c.236.236.3.7.3.7l.00025 2s-.0644.464-.3.7z"/>
    <path id="back-large" fill="url(#globalGradient)" d="M16 30H8.5l2.79 2.67c.6.574.68 1.45.226 1.94l-.906 1.09c-.453.485-1.25.363-1.81-.242l-6.12-6.67-.68-.85.68-.849 6.01-6.55c.567-.607 1.36-.728 1.81-.242l.907 1.09c.453.486.339 1.33-.226 1.94l-2.68 2.67h7.5c.539 0 1 .461 1 1 0 .669.00029 1.44.00029 2 0 .539-.467.924-1 1z"/>
    <path id="forward" fill="url(#globalGradient)" d="M21.3 10.7c.236.236.7.3.7.3h5l-2.13 2.09c-.519.508-.595 1.27-.198 1.7l.793.955c.396.424 1.09.318 1.59-.212l5.36-5.84.595-.744-.595-.743-5.26-5.73c-.496-.531-1.19-.637-1.59-.212l-.794.955c-.396.425-.297 1.17.198 1.7l2.03 2.08h-5s-.464.0643-.7.3c-.236.236-.3.7-.3.7l-.00025 2s.0644.464.3.7z"/>
    <path id="stop" fill="url(#globalGradient)" stroke-width="1.08" d="M51.5 4.65l-4.27 4.3 4.27 4.3-2.13 2.15L45 11.2l-4.27 4.3-2.13-2.15 4.27-4.4-4.37-4.3 2.13-2.15L45 6.8l4.27-4.3z"/>
    <path id="reload" fill="url(#globalGradient)" d="M69 9h-7l2.8-2.8c-.7-.5-1.4-.7-2.3-.7-2.2 0-4 1.8-4 4s1.8 4 4 4c1.4 0 2.7-.7 3.4-1.9l2.3 1c-1.1 2-3.2 3.4-5.7 3.4-3.6 0-6.5-2.9-6.5-6.5S58.9 3 62.5 3c1.5 0 2.9.5 4.1 1.4L69 2z"/>
    <path id="home" fill="url(#globalGradient)" d="M76 9h-3l8-7 8 7h-3v7h-4v-4h-2v4h-4z"/>
    <path id="download" fill="url(#globalGradient)" d="M91.5 9h4.45V2h6.09v7h4.45l-7.5 7z"/>
    <path id="download-active" fill="url(#globalGradient-8)" d="M91.5 27h4.45v-7h6.09v7h4.45l-7.5 7z"/>
    <path id="history" fill="url(#globalGradient)" d="M117 2c-3.87 0-7 3.13-7 7s3.13 7 7 7 7-3.13 7-7-3.13-7-7-7zm0 2c2.76 0 5 2.24 5 5s-2.24 5-5 5-5-2.24-5-5 2.24-5 5-5zm-.7 1.2c-.236.236-.3.8-.3.8v4l4 2-2-3V6s-.0643-.564-.3-.8-.7-.2-.7-.2-.464-.0357-.7.2z"/>
    <g id="bookmarks">
      <path id="bookmarks-star" fill="url(#radialGradient2993)" d="M131 2v14h9.95c.992-.258 1.82-1.04 2.05-2V4c-.233-.962-1.06-1.74-2.05-2zm6 3c.205 0 .599.502.943 1.2.589 1.2.597 1.2 1.83 1.36 1.5.187 1.6.552.441 1.67-.794.765-.796.766-.646 2.26.176 1.76.0164 1.86-1.58.922-.985-.576-.986-.576-1.97 0-1.6.933-1.76.841-1.58-.922.149-1.5.15-1.5-.645-2.26-1.17-1.12-1.07-1.5.445-1.69 1.23-.154 1.24-.161 1.83-1.35.341-.694.735-1.19.939-1.19z"/>
      <path id="bookmarks-overlay" fill="#596c77" d="M129 2c-.992.258-1.77 1.04-2 2v10c.233.962 1.01 1.74 2 2h2.5V2z" paint-order="markers stroke fill"/>
      <path id="bookmarks-divider" fill="#2f3941" d="M131 2v14h.5V2z"/>
    </g>
    <path id="print" fill="url(#globalGradient)" d="M160 14h-2l1 2h-12l1-2h-2c-.601 0-1-.4-1-1V8c0-.6.701-.635 1-1 .381-.465.619-1.04 1-1.5.299-.365.399-1 1-1V3c0-.6.399-1 1-1h8c.6 0 1 .4 1 1v1.5c.6 0 .701.635 1 1 .381.465.619 1.04 1 1.5.299.365 1 .4 1 1v5c0 .6-.4 1-1 1zm-11.5-5h-1c-.3 0-.5.2-.5.5s.2.5.5.5h1c.3 0 .5-.2.5-.5s-.2-.5-.5-.5zm8.5-5c0-.6-.4-1-1-1h-6c-.601 0-1 .4-1 1v3c0 .6.399 1 1 1h6c.6 0 1-.4 1-1zm-.9 9h-6.2l-.899 2h8z"/>
    <path id="newtab" fill="url(#globalGradient)" d="M171 2l-4.02.00195c0 .00178-.877.217-.877 1.5v2.82c0 .338-.412.684-.75.684h-.775c-.711 0-1.52.789-1.52 1.5v6c0 .707.789 1.5 1.5 1.5h13c.707 0 1.5-.793 1.5-1.5v-6c0-.71-.803-1.5-1.51-1.5h-.699c-.351 0-.801-.333-.801-.684 0-.501.002-2.82.002-2.82.0001-1.4-1.02-1.5-1.02-1.5zm-.791 5h1.71v2.14h2.14v1.71h-2.14v2.14h-1.71v-2.14h-2.14V9.14h2.14z"/>
    <path id="newwindow" fill="url(#globalGradient)" d="M182.44 2c-.914.278-1.152.811-1.438 1.688v10.438c.217 1.33.753 1.636 2.063 1.875h11.938c1.305-.205 1.705-.574 2-1.875V4c-.198-1.228-.5-1.63-1.688-2zm7.563 1h1v1h-1zm2 0h1v1h-1zm2 0h2v1h-2zm-12 3h14v9h-14zm6.142 1v2.143h-2.143v1.714h2.143V13h1.715v-2.143h2.142V9.143h-2.142V7z"/>
    <path id="cut" fill="url(#globalGradient)" d="M213 16c-.797 0-1.5-.2-2.29-1.3-.798-1.1-1.7-2.5-1.7-2.5s-.697-.9-1.1-1.6c-.498-.7-1.1-.5-1.1-.5s-2.89-4.7-3.39-5.4c-.598-1 .599-2.7.599-2.7l4.39 7s1.4 1.9 1.89 2.3c.499.4 1.4-.4 2.79.9 1.89 1.8 1.3 3.8-.101 3.8zm-.298-2.9c-.897-1-1.69-.9-1.89-.6s0 1.2.398 1.7.798.7 1.4.7c.599.1 1.1-.7.1-1.8zm-3.79-4.7l-1.2-1.8 2.89-4.6s1.2 1.7.599 2.7c-.299.4-1.4 2.3-2.29 3.7zm-4.59 2.9c.299-.3.997-1.1 1.4-1.7l.798 1.2c-.398.6-.897 1.4-.897 1.4s-.896 1.4-1.69 2.5c-.698 1.1-1.4 1.3-2.29 1.3-1.4 0-2.09-2-.1-3.8 1.39-1.2 2.29-.499 2.79-.9zm-2.39 1.8c-.897 1-.398 1.8.199 1.8.599 0 .997-.2 1.4-.7.398-.5.598-1.5.398-1.7-.298-.3-1.1-.4-1.99.6z"/>
    <path id="copy" fill="url(#globalGradient)" d="M231 16h-6c-.601 0-1-.4-1-1V7c0-.6.399-1 1-1h5l2 2v7c0 .6-.4 1-1 1zm-2-9v2h2zm-6-1.1V12h-4c-.601 0-1-.4-1-1V3c0-.6.399-1 1-1h5l2 2v1.3h-2.5c-.3.1-.5.3-.5.6zm0-2.9v2h2z"/>
    <path id="paste" fill="url(#globalGradient)" d="M247 16h-7c-.8 0-1.5-.7-1.5-1.5v-9c0-.8.7-1.5 1.5-1.5h1.5s0-2 2-2 2 2 2 2h1.5c.8 0 1.5.7 1.5 1.5v9c.00091.799-.699 1.5-1.5 1.5zm-.8-11l-1.1-.5s0-1.5-1.6-1.5-1.6 1.5-1.6 1.5l-1.1.5-.5 1h6.5zm.1 1.7h-4.7l-3 1.7 2.8 4.9 6.6-3.8z"/>
    <path id="fullscreen" fill="url(#globalGradient)" d="M265 12V6l3 3zm-7 1h6l-3 3zm0-1V6h6v6zm5-4h-4v3h4zm-2-6l3 3h-6zm-4 4v6l-3-3z"/>
    <path id="minus" fill="url(#globalGradient)" d="M274 8h10v2h-10z"/>
    <path id="plus" fill="url(#globalGradient)" d="M302 10h-4v4h-2v-4h-4V8h4V4h2v4h4z"/>
    <path id="sync" fill="url(#globalGradient)" d="M308 2l2.04 1.58s-.482.599-.908 1.3c-2.36 3.86-.77 7.94 2.84 10.1 1.18.711 2.07 1 2.07 1v-3.42s-4.24-1.29-2.04-5.64c.52-.792 1.04-.864 1.04-.864l2 2.5v-6.58zm7.96 0v3.42s4.24 1.29 2.04 5.64c-.52.792-1.04.864-1.04.864l-2-2.5v6.58H322l-2.04-1.58s.482-.599.908-1.3c2.36-3.86.77-7.94-2.84-10.1-1.18-.712-2.07-1-2.07-1z"/>
    <path id="rss" fill="url(#globalGradient)" d="M339 15.9h-1.5c-.4 0-.8-.3-.8-.8 0 0 .3-3.6-3.2-7.2-2.5-3-7-3.2-7-3.2-.5 0-.8-.3-.8-.7V2.6c0-.4.3-.7.8-.7 0 0 6.3.4 9.6 4.5 3.3 3.1 3.6 8.8 3.6 8.8-.001.4-.201.7-.701.7zm-12.5-9s3.7.5 5.8 2.4c2.1 2 2.5 5.9 2.5 5.9 0 .4-.1.8-.5.8h-1.5c-.4 0-.6-.3-.6-.8 0 0 .1-2.4-1.8-4.2-1.5-1.3-3.9-1.4-3.9-1.4-.5 0-.8-.3-.8-.7V7.6c0-.4.3-.7.8-.7zm1.2 5c1.1 0 2 .9 2 2s-.9 2-2 2-2-.9-2-2 .9-2 2-2z"/>
    <path id="webrtc" fill="url(#globalGradient)" d="M344 5s.0643-.464.3-.7.7-.3.7-.3h7.5s.464.0643.7.3c.236.236.3.7.3.7v2l4.02-3-.049 10-3.98-3v2s-.0643.464-.3.7-.7.3-.7.3h-7.5s-.464-.0643-.7-.3c-.236-.236-.3-.7-.3-.7z"/>
    <path id="bookmark-none" fill="url(#bm-none)" d="M364 14c.299-3 .299-3-1.29-4.53-2.33-2.24-2.13-3 .891-3.38 2.47-.307 2.49-.322 3.65-2.7.682-1.39 1.47-2.39 1.88-2.39.411 0 1.2 1 1.89 2.41 1.18 2.4 1.19 2.41 3.65 2.71 3.01.375 3.2 1.1.881 3.34-1.59 1.53-1.59 1.53-1.29 4.53.351 3.52.032 3.71-3.16 1.84-1.97-1.15-1.97-1.15-3.94 0-3.19 1.87-3.51 1.68-3.16-1.84z" filter="url(#filter2164)"/>
    <path id="bookmark-added" fill="url(#bm-created)" d="M364 32c.299-3 .299-3-1.29-4.53-2.33-2.24-2.13-3 .891-3.38 2.47-.307 2.49-.322 3.65-2.7.682-1.39 1.47-2.39 1.88-2.39.411 0 1.2 1 1.89 2.41 1.18 2.4 1.19 2.41 3.65 2.71 3.01.375 3.2 1.1.881 3.34-1.59 1.53-1.59 1.53-1.29 4.53.351 3.52.032 3.71-3.16 1.84-1.97-1.15-1.97-1.15-3.94 0-3.19 1.87-3.51 1.68-3.16-1.84z" filter="url(#filter2164)"/>
  </g>
</svg>
