<svg xmlns="http://www.w3.org/2000/svg" xmlns:xlink="http://www.w3.org/1999/xlink" id="strataToolbarSVG" width="378" height="38" version="1.1" viewBox="0 0 378 38">
  <defs>
    <linearGradient id="bm-none" x1="367.3" x2="367.3" y1=".75" y2="13.224" gradientTransform="translate(-315 -320)" gradientUnits="userSpaceOnUse">
      <stop offset="0" stop-color="#c9c9c9"/>
      <stop offset="1" stop-color="#fff"/>
    </linearGradient>
    <linearGradient id="bm-created" x1="683.94" x2="683.94" y1="317.07" y2="331.7" gradientTransform="translate(-315 -296)" gradientUnits="userSpaceOnUse">
      <stop offset="0" stop-color="#e6a324"/>
      <stop offset="1" stop-color="#fae165"/>
    </linearGradient>
    <radialGradient id="globalGradient" cy=".7">
      <stop offset=".05" stop-color="#87939b"/>
      <stop offset="1" stop-color="#45555f"/>
    </radialGradient>
    <filter id="insetShadow">
      <feFlood flood-color="#000" flood-opacity=".498" result="flood"/>
      <feComposite in="flood" in2="SourceGraphic" operator="out" result="composite1"/>
      <feGaussianBlur in="composite1" result="blur" stdDeviation="2"/>
      <feOffset result="offset"/>
      <feComposite in="offset" in2="SourceGraphic" operator="atop" result="composite2"/>
    </filter>
    <filter id="filter2164" width="1" height="1" x="0" y="0" color-interpolation-filters="sRGB">
      <feFlood flood-color="#000" result="flood"/>
      <feComposite in="flood" in2="SourceGraphic" operator="out" result="composite1"/>
      <feGaussianBlur in="composite1" result="blur" stdDeviation=".5"/>
      <feOffset result="offset"/>
      <feComposite in="offset" in2="SourceGraphic" operator="atop" result="composite2"/>
    </filter>
    <radialGradient id="radialGradient2993" cx="147.98" cy="10.925" r="6.481" gradientTransform="scale(.92582 1.0801)" gradientUnits="userSpaceOnUse" xlink:href="#globalGradient"/>
  </defs>
  <g id="toolbar" filter="url(#insetShadow)">
    <path id="back" fill="url(#globalGradient)" d="M14.7 10.7c-.236.236-.7.3-.7.3H9l2.132 2.086c.52.508.595 1.272.198 1.697l-.793.955c-.396.424-1.091.318-1.587-.212L3.595 9.691 3 8.947l.595-.743 5.256-5.73c.496-.53 1.19-.637 1.587-.212l.794.955c.396.425.297 1.167-.198 1.698L9 7h5s.464.064.7.3c.236.236.3.7.3.7v2s-.064.464-.3.7z"/>
    <path id="back-large" fill="url(#globalGradient)" d="M16 30H8.5l2.794 2.67c.6.573.68 1.454.226 1.94l-.906 1.091c-.453.485-1.247.363-1.814-.242l-6.12-6.67-.68-.85.68-.849 6.007-6.548c.567-.607 1.36-.728 1.813-.242l.908 1.091c.452.486.34 1.334-.226 1.94L8.5 26H16c.539 0 1 .461 1 1v2c0 .539-.467.924-1 1z"/>
    <path id="forward" fill="url(#globalGradient)" d="M21.3 10.7c.236.236.7.3.7.3h5l-2.132 2.086c-.52.508-.595 1.272-.198 1.697l.793.955c.396.424 1.091.318 1.587-.212l5.355-5.835.595-.744-.595-.743-5.256-5.73c-.496-.53-1.19-.637-1.587-.212l-.794.955c-.396.425-.297 1.167.198 1.698L27 7h-5s-.464.064-.7.3c-.236.236-.3.7-.3.7v2s.064.464.3.7z"/>
    <path id="stop" fill="url(#globalGradient)" d="M51.5 4.65l-4.266 4.3 4.266 4.299-2.133 2.15L45 11.2l-4.266 4.3-2.133-2.15 4.266-4.402-4.367-4.3L40.633 2.5 45 6.8l4.266-4.3z"/>
    <path id="reload" fill="url(#globalGradient)" d="M69 9h-7l2.8-2.8c-.7-.5-1.4-.7-2.3-.7-2.2 0-4 1.8-4 4s1.8 4 4 4c1.399 0 2.7-.7 3.399-1.9l2.301 1c-1.101 2-3.2 3.4-5.7 3.4-3.601 0-6.5-2.9-6.5-6.5S58.899 3 62.5 3c1.5 0 2.899.5 4.1 1.4L69 2z"/>
    <path id="home" fill="url(#globalGradient)" d="M76 9h-3l8-7 8 7h-3v7h-4v-4h-2v4h-4z"/>
    <path id="download" fill="url(#globalGradient)" d="M91.5 9h4.453V2h6.093v7h4.454L99 16z"/>
    <path id="download-active" fill="url(#globalGradient-8)" d="M91.5 27h4.453v-7h6.093v7h4.454L99 34z"/>
    <path id="history" fill="url(#globalGradient)" d="M117 2a7 7 0 1 0 0 14 7 7 0 0 0 0-14zm0 2a5 5 0 1 1 0 10 5 5 0 0 1 0-10zm-.7 1.2c-.236.236-.3.8-.3.8v4l4 2-2-3V6s-.064-.564-.3-.8-.7-.2-.7-.2-.464-.036-.7.2z"/>
    <g id="bookmarks">
      <path id="bookmarks-star" fill="url(#radialGradient2993)" d="M131 2v14h9.95c.991-.258 1.817-1.038 2.05-2V4c-.233-.962-1.059-1.742-2.05-2H131zm6.002 3c.205 0 .599.502.943 1.203.59 1.198.598 1.204 1.827 1.357 1.502.188 1.6.553.441 1.669-.794.764-.796.765-.647 2.263.176 1.763.017 1.855-1.58.922-.985-.576-.985-.576-1.97 0-1.597.933-1.756.84-1.58-.922.149-1.498.15-1.499-.645-2.264-1.165-1.122-1.066-1.499.445-1.687 1.233-.154 1.243-.16 1.827-1.348.34-.694.734-1.193.939-1.193z"/>
      <path id="bookmarks-overlay" fill="#596c77" d="M129 2c-.992.258-1.767 1.038-2 2v10c.233.962 1.008 1.742 2 2h2.5V2z" paint-order="markers stroke fill"/>
      <path id="bookmarks-divider" fill="#2f3941" d="M131.25 2v14h.5V2z" color="#000"/>
    </g>
    <path id="print" fill="url(#globalGradient)" d="M160 14h-2l1 2h-12l1-2h-2c-.601 0-1-.4-1-1V8c0-.6.701-.635 1-1 .381-.465.619-1.035 1-1.5.299-.365.399-1 1-1V3c0-.6.399-1 1-1h8c.6 0 1 .4 1 1v1.5c.6 0 .701.635 1 1 .381.465.619 1.035 1 1.5.299.365 1 .4 1 1v5c0 .6-.4 1-1 1zm-11.5-5h-1c-.3 0-.5.2-.5.5s.2.5.5.5h1c.3 0 .5-.2.5-.5s-.2-.5-.5-.5zm8.5-5c0-.6-.4-1-1-1h-6c-.601 0-1 .4-1 1v3c0 .6.399 1 1 1h6c.6 0 1-.4 1-1zm-.9 9h-6.2l-.899 2h8z"/>
    <path id="newtab" fill="url(#globalGradient)" d="M170.93 2l-4.016.002c0 .002-.876.217-.877 1.498v2.816c0 .339-.411.684-.75.684h-.775c-.71 0-1.516.79-1.516 1.5v6c0 .707.79 1.5 1.5 1.5h13c.708 0 1.5-.793 1.5-1.5v-6c0-.71-.803-1.5-1.513-1.5h-.7c-.35 0-.8-.333-.8-.684l.002-2.816c0-1.395-1.018-1.5-1.018-1.5zm-.791 5h1.715v2.143h2.142v1.714h-2.142V13h-1.715v-2.143h-2.143V9.143h2.143z"/>
    <path id="newwindow" fill="url(#globalGradient)" d="M182.44 2c-.914.278-1.152.811-1.438 1.688v10.438c.217 1.33.753 1.636 2.063 1.875h11.938c1.305-.205 1.705-.574 2-1.875V4c-.198-1.228-.5-1.63-1.688-2zm7.563 1h1v1h-1zm2 0h1v1h-1zm2 0h2v1h-2zm-12 3h14v9h-14zm6.142 1v2.143h-2.143v1.714h2.143V13h1.715v-2.143h2.142V9.143h-2.142V7z"/>
    <path id="cut" fill="url(#globalGradient)" d="M212.7 16c-.797 0-1.495-.2-2.292-1.3-.798-1.1-1.695-2.5-1.695-2.5s-.697-.9-1.098-1.6c-.498-.7-1.097-.5-1.097-.5s-2.89-4.7-3.39-5.4c-.598-1 .6-2.7.6-2.7l4.387 7s1.396 1.9 1.894 2.3c.499.4 1.396-.4 2.792.9 1.894 1.8 1.296 3.8-.101 3.8zm-.298-2.9c-.897-1-1.694-.9-1.894-.6s0 1.2.398 1.7.798.7 1.396.7c.599.1 1.097-.7.1-1.8zm-3.79-4.7l-1.195-1.8 2.89-4.6s1.197 1.7.6 2.7c-.3.4-1.396 2.3-2.294 3.7zm-4.585 2.899c.3-.3.997-1.1 1.396-1.7l.798 1.2c-.398.6-.897 1.4-.897 1.4s-.896 1.4-1.694 2.5c-.698 1.1-1.396 1.3-2.293 1.3-1.396 0-2.094-2-.1-3.8 1.394-1.199 2.291-.499 2.79-.9zm-2.393 1.801c-.897 1-.398 1.8.2 1.8.598 0 .996-.2 1.395-.7.398-.5.598-1.5.398-1.7-.298-.3-1.096-.4-1.993.6z"/>
    <path id="copy" fill="url(#globalGradient)" d="M231 16h-6c-.601 0-1-.4-1-1V7c0-.6.399-1 1-1h5l2 2v7c0 .6-.4 1-1 1zm-2-9v2h2zm-6-1.1V12h-4c-.601 0-1-.4-1-1V3c0-.6.399-1 1-1h5l2 2v1.3h-2.5c-.3.1-.5.3-.5.6zm0-2.9v2h2z"/>
    <path id="paste" fill="url(#globalGradient)" d="M246.5 16h-7.001c-.8 0-1.5-.7-1.5-1.5v-9c0-.8.7-1.5 1.5-1.5h1.5s0-2 2-2 2 2 2 2h1.5c.8 0 1.5.7 1.5 1.5v9c.001.799-.699 1.5-1.499 1.5zm-.8-11l-1.1-.5s0-1.5-1.6-1.5-1.601 1.5-1.601 1.5l-1.101.5-.5 1h6.502zm.1 1.7h-4.701l-3.001 1.7 2.8 4.9 6.602-3.8z"/>
    <path id="fullscreen" fill="url(#globalGradient)" d="M265 12V6l3 3zm-7 1h6l-3 3zm0-1V6h6v6zm5-4h-4v3h4zm-2-6l3 3h-6zm-4 4v6l-3-3z"/>
    <path id="minus" fill="url(#globalGradient)" d="M274 8h10v2h-10z"/>
    <path id="plus" fill="url(#globalGradient)" d="M302 10h-4v4h-2v-4h-4V8h4V4h2v4h4z"/>
    <path id="sync" fill="url(#globalGradient)" d="M308 2l2.035 1.584s-.482.599-.908 1.297c-2.357 3.86-.77 7.938 2.838 10.119 1.177.711 2.07 1 2.07 1v-3.416s-4.237-1.291-2.035-5.636c.52-.792 1.035-.864 1.035-.864l2 2.5V2zm7.965 0v3.416s4.237 1.29 2.035 5.636c-.52.792-1.035.864-1.035.864l-2-2.5V16H322l-2.035-1.584s.482-.599.908-1.297c2.357-3.86.77-7.939-2.838-10.119-1.177-.711-2.07-1-2.07-1z"/>
    <path id="rss" fill="url(#globalGradient)" d="M339.3 15.9h-1.5c-.4 0-.8-.3-.8-.8 0 0 .3-3.6-3.2-7.2-2.5-3-7-3.2-7-3.2-.5 0-.8-.3-.8-.7V2.6c0-.4.3-.7.8-.7 0 0 6.3.4 9.6 4.5 3.3 3.1 3.6 8.8 3.6 8.8 0 .4-.2.7-.7.7zm-12.499-9s3.7.5 5.8 2.4c2.1 2 2.5 5.9 2.5 5.9 0 .4-.1.8-.5.8h-1.5c-.4 0-.6-.3-.6-.8 0 0 .1-2.4-1.801-4.2-1.5-1.3-3.899-1.4-3.899-1.4-.5 0-.8-.3-.8-.7V7.6c0-.4.3-.7.8-.7zm1.2 5c1.1 0 2 .9 2 2s-.9 2-2 2c-1.101 0-2-.9-2-2s.9-2 2-2z"/>
    <path id="webrtc" fill="url(#globalGradient)" d="M344.5 5s.064-.464.3-.7.7-.3.7-.3h7.5s.464.064.7.3c.236.236.3.7.3.7v2l4.024-3-.049 10L354 11v2s-.064.464-.3.7-.7.3-.7.3h-7.5s-.464-.064-.7-.3c-.236-.236-.3-.7-.3-.7z"/>
    <path id="bookmark-none" fill="url(#bm-none)" d="M363.87 13.983c.299-2.996.299-2.996-1.29-4.526-2.33-2.244-2.13-3 .891-3.376 2.466-.307 2.486-.321 3.653-2.695C367.806 1.998 368.59 1 369 1c.41 0 1.198 1.004 1.888 2.406 1.178 2.396 1.195 2.408 3.652 2.715 3.006.374 3.198 1.104.881 3.336-1.588 1.53-1.588 1.53-1.29 4.526.352 3.525.032 3.71-3.16 1.844-1.97-1.152-1.97-1.152-3.941 0-3.193 1.867-3.512 1.68-3.161-1.844z" filter="url(#filter2164)"/>
    <path id="bookmark-added" fill="url(#bm-created)" d="M363.87 31.983c.299-2.996.299-2.996-1.29-4.526-2.33-2.244-2.13-3 .891-3.376 2.466-.307 2.486-.321 3.653-2.695C367.806 19.998 368.59 19 369 19c.41 0 1.198 1.004 1.888 2.406 1.178 2.396 1.195 2.408 3.652 2.715 3.006.374 3.198 1.104.881 3.336-1.588 1.53-1.588 1.53-1.29 4.526.352 3.525.032 3.71-3.16 1.844-1.97-1.152-1.97-1.152-3.941 0-3.193 1.867-3.512 1.68-3.161-1.844z" filter="url(#filter2164)"/>
  </g>
</svg>
