<svg id="strataToolbarSVG" width="378" height="38" enable-background="new 0 0 378 38" version="1.1" viewBox="0 0 378 38" xmlns="http://www.w3.org/2000/svg">
 <defs>
  <filter id="filter1070" color-interpolation-filters="sRGB">
   <feFlood flood-color="rgb(0,0,0)" flood-opacity=".498" result="flood"/>
   <feComposite in="flood" in2="SourceGraphic" operator="in" result="composite1"/>
   <feGaussianBlur in="composite1" result="blur" stdDeviation="0.5"/>
   <feOffset dx="0" dy="0" result="offset"/>
   <feComposite in="SourceGraphic" in2="offset" result="fbSourceGraphic"/>
   <feColorMatrix in="fbSourceGraphic" result="fbSourceGraphicAlpha" values="0 0 0 -1 0 0 0 0 -1 0 0 0 0 -1 0 0 0 0 1 0"/>
   <feFlood flood-color="rgb(0,0,0)" flood-opacity=".498" in="fbSourceGraphic" result="flood"/>
   <feComposite in="flood" in2="fbSourceGraphic" operator="in" result="composite1"/>
   <feGaussianBlur in="composite1" result="blur" stdDeviation="0.5"/>
   <feOffset dx="0" dy="0" result="offset"/>
   <feComposite in="fbSourceGraphic" in2="offset" result="fbSourceGraphic"/>
   <feColorMatrix in="fbSourceGraphic" result="fbSourceGraphicAlpha" values="0 0 0 -1 0 0 0 0 -1 0 0 0 0 -1 0 0 0 0 1 0"/>
   <feFlood flood-color="rgb(0,0,0)" flood-opacity=".498" in="fbSourceGraphic" result="flood"/>
   <feComposite in="flood" in2="fbSourceGraphic" operator="in" result="composite1"/>
   <feGaussianBlur in="composite1" result="blur" stdDeviation="0.5"/>
   <feOffset dx="0" dy="0" result="offset"/>
   <feComposite in="fbSourceGraphic" in2="offset" result="fbSourceGraphic"/>
   <feColorMatrix in="fbSourceGraphic" result="fbSourceGraphicAlpha" values="0 0 0 -1 0 0 0 0 -1 0 0 0 0 -1 0 0 0 0 1 0"/>
   <feFlood flood-color="rgb(0,0,0)" flood-opacity=".498" in="fbSourceGraphic" result="flood"/>
   <feComposite in="flood" in2="fbSourceGraphic" operator="in" result="composite1"/>
   <feGaussianBlur in="composite1" result="blur" stdDeviation="0.5"/>
   <feOffset dx="0" dy="0" result="offset"/>
   <feComposite in="fbSourceGraphic" in2="offset" result="fbSourceGraphic"/>
   <feColorMatrix in="fbSourceGraphic" result="fbSourceGraphicAlpha" values="0 0 0 -1 0 0 0 0 -1 0 0 0 0 -1 0 0 0 0 1 0"/>
   <feFlood flood-color="rgb(0,0,0)" flood-opacity=".498" in="fbSourceGraphic" result="flood"/>
   <feComposite in="flood" in2="fbSourceGraphic" operator="in" result="composite1"/>
   <feGaussianBlur in="composite1" result="blur" stdDeviation="0.5"/>
   <feOffset dx="0" dy="0" result="offset"/>
   <feComposite in="fbSourceGraphic" in2="offset" result="composite2"/>
  </filter>
 </defs>
 <g id="toolbar" fill="#fff" filter="url(#filter1070)">
  <path id="back" d="m14.7 10.7c-.236.236-.7.3-.7.3h-5l2.13 2.09c.519.508.595 1.27.198 1.7l-.793.955c-.396.424-1.09.318-1.59-.212l-5.36-5.84-.595-.744.595-.743 5.26-5.73c.496-.531 1.19-.637 1.59-.212l.794.955c.396.425.297 1.17-.198 1.7l-2.03 2.08h5s.464.0643.7.3c.236.236.3.7.3.7l.00025 2s-.0644.464-.3.7z"/>
  <path id="back-large" d="m16.4 29.7c-.275.275-.817.35-.817.35h-6.63l2.49 2.52c.596.603.694 1.49.231 1.98l-.925 1.11c-.462.495-1.27.371-1.85-.247l-6.25-6.81-.694-.868.694-.867 6.13-6.68c.579-.619 1.39-.743 1.85-.247l.926 1.11c.462.496.346 1.36-.231 1.98l-2.37 2.35h6.62s.542.0751.817.35c.275.275.35.817.35.817l.000146 2.33s-.0752.542-.35.817z"/>
  <path id="forward" d="m21.3 10.7c.236.236.7.3.7.3h5l-2.13 2.09c-.519.508-.595 1.27-.198 1.7l.793.955c.396.424 1.09.318 1.59-.212l5.36-5.84.595-.744-.595-.743-5.26-5.73c-.496-.531-1.19-.637-1.59-.212l-.794.955c-.396.425-.297 1.17.198 1.7l2.03 2.08h-5s-.464.0643-.7.3c-.236.236-.3.7-.3.7l-.00025 2s.0644.464.3.7z"/>
  <path id="stop" d="m51.5 4.65-4.27 4.3 4.27 4.3-2.13 2.15-4.37-4.2-4.27 4.3-2.13-2.15 4.27-4.4-4.37-4.3 2.13-2.15 4.37 4.3 4.27-4.3z"/>
  <path id="reload" d="m69 9h-7l2.8-2.8c-.7-.5-1.4-.7-2.3-.7-2.2 0-4 1.8-4 4s1.8 4 4 4c1.4 0 2.7-.7 3.4-1.9l2.3 1c-1.1 2-3.2 3.4-5.7 3.4-3.6 0-6.5-2.9-6.5-6.5s2.9-6.5 6.5-6.5c1.5 0 2.9.5 4.1 1.4l2.4-2.4z"/>
  <path id="home" d="m76 9h-3l8-7 8 7h-3v6.5h-4v-3.5h-2v3.5h-4z"/>
  <path id="download" d="m91.5 9h4.45v-7h6.09v7h4.45l-7.5 7z"/>
  <path id="history" d="m117 2c-3.87 0-7 3.13-7 7s3.13 7 7 7 7-3.13 7-7-3.13-7-7-7zm0 2c2.76 0 5 2.24 5 5s-2.24 5-5 5c-2.76 0-5-2.24-5-5s2.24-5 5-5zm-.7 1.2c-.236.236-.3.8-.3.8v4l4 2-2-3v-3s-.0643-.564-.3-.8-.7-.2-.7-.2-.464-.0357-.7.2z"/>
  <g id="bookmarks">
   <path id="bookmarks-star" d="m131 2v14h9.95c.992-.258 1.77-1.04 2-2v-10c-.233-.962-1.01-1.74-2-2h-2.5zm6.12 2.42 1.05 1.77s.292.488.52.643c.213.145.738.229.738.229h2.16l-1.5 2.43s-.218.478-.326.717c-.163.358.005.983.0586 1.57.0848.918.15 1.81.15 1.81l-1.75-.895s-.717-.337-1.1-.338c-.452 0-1.3.393-1.3.393l-1.75.842s.129-.801.268-1.68c.0917-.579.345-1.24.141-1.64-.111-.217-.332-.648-.332-.648l-1.72-2.5h2.14s.697-.0492.982-.229c.217-.135.482-.596.482-.596z"/>
   <path id="bookmarks-overlay" d="m129 2c-.992.258-1.77 1.04-2 2v10c.233.962 1.01 1.74 2 2h2.5v-14z"/>
   <path id="bookmarks-divider" d="m131 2v14" stroke="#000" stroke-width=".5"/>
  </g>
  <path id="print" d="m160 14h-2l1 2h-12l1-2h-2c-.601 0-1-.4-1-1v-5c0-.6.701-.635 1-1 .381-.465.619-1.04 1-1.5.299-.365.399-1 1-1v-1.5c0-.6.399-1 1-1h8c.6 0 1 .4 1 1v1.5c.6 0 .701.635 1 1 .381.465.619 1.04 1 1.5.299.365 1 .4 1 1v5c0 .6-.4 1-1 1zm-11.5-5h-1c-.3 0-.5.2-.5.5s.2.5.5.5h1c.3 0 .5-.2.5-.5s-.2-.5-.5-.5zm8.5-5c0-.6-.4-1-1-1h-6c-.601 0-1 .4-1 1v3c0 .6.399 1 1 1h6c.6 0 1-.4 1-1zm-.9 9h-6.2l-.899 2h8z"/>
  <path id="newtab" d="m171 2-4.02.00195c0 .00178-.877.217-.877 1.5v2.82s-.0732.364-.199.484c-.142.135-.551.199-.551.199s-.532-.057-.775 0c-.363.086-.736.236-1 .5-.264.264-.415.637-.5 1-.038.162 0 .5 0 .5v5.54s.24.711.5.963c.274.267 1.04.5 1.04.5h13.1s.603-.276.84-.5c.217-.205.49-.742.49-.742v-5.76c.026-.322.038-.338 0-.5-.086-.363-.226-.736-.49-1-.264-.264-.638-.415-1-.5-.228-.054-.699 0-.699 0s-.447-.0562-.602-.199c-.128-.119-.199-.484-.199-.484l.00195-2.82c.00015-1.4-1.02-1.5-1.02-1.5zm-.791 5h1.71v2.14h2.14v1.71h-2.14v2.14h-1.71v-2.14h-2.14v-1.71h2.14z"/>
  <path id="newwindow" d="m182 2c-.914.278-1.15.811-1.44 1.69v10.4c.216 1.33.753 1.64 2.06 1.88h11.9c1.3-.204 1.7-.573 2-1.88v-10.1c-.198-1.23-.5-1.63-1.69-2zm7.56 1h1v1h-1zm2 0h1v1h-1zm2 0h2v1h-2zm-11 3h12v8h-12zm5.14 1v2.14h-2.14v1.71h2.14v2.14h1.71v-2.14h2.14v-1.71h-2.14v-2.14z"/>
  <path id="cut" d="m213 16c-.797 0-1.5-.2-2.29-1.3-.798-1.1-1.7-2.5-1.7-2.5s-.697-.9-1.1-1.6c-.498-.7-1.1-.5-1.1-.5s-2.89-4.7-3.39-5.4c-.598-1 .599-2.7.599-2.7l4.39 7s1.4 1.9 1.89 2.3c.499.4 1.4-.4 2.79.9 1.89 1.8 1.3 3.8-.101 3.8zm-.298-2.9c-.897-1-1.69-.9-1.89-.6s0 1.2.398 1.7c.398.5.798.7 1.4.7.599.1 1.1-.7.1-1.8zm-3.79-4.7-1.2-1.8 2.89-4.6s1.2 1.7.599 2.7c-.299.4-1.4 2.3-2.29 3.7zm-4.59 2.9c.299-.3.997-1.1 1.4-1.7l.798 1.2c-.398.6-.897 1.4-.897 1.4s-.896 1.4-1.69 2.5c-.698 1.1-1.4 1.3-2.29 1.3-1.4 0-2.09-2-.1-3.8 1.39-1.2 2.29-.499 2.79-.9zm-2.39 1.8c-.897 1-.398 1.8.199 1.8.599 0 .997-.2 1.4-.7.398-.5.598-1.5.398-1.7-.298-.3-1.1-.4-1.99.6z"/>
  <path id="copy" d="m231 16h-6c-.601 0-1-.4-1-1v-8c0-.6.399-1 1-1h5l2 2v7c0 .6-.4 1-1 1zm-2-9v2h2zm-6-1.1v6.1h-4c-.601 0-1-.4-1-1v-8c0-.6.399-1 1-1h5l2 2v1.3h-2.5c-.3.1-.5.3-.5.6zm0-2.9v2h2z"/>
  <path id="paste" d="m247 16h-7.7c-.88 0-1.65-.7-1.65-1.5v-9c0-.8.77-1.5 1.65-1.5h1.65s0-2 2.2-2 2.2 2 2.2 2h1.65c.88 0 1.65.7 1.65 1.5v9c.001.799-.769 1.5-1.65 1.5zm-.88-11-1.21-.5s0-1.5-1.76-1.5-1.76 1.5-1.76 1.5l-1.21.5-.55 1h7.15zm.11 1.7h-5.17l-3.3 1.7 3.08 4.9 7.26-3.8z"/>
  <path id="fullscreen" d="m265 12v-6l3 3zm-7 1h6l-3 3zm0-1v-6h6v6zm5-4h-4v3h4zm-2-6 3 3h-6zm-4 4v6l-3-3z"/>
  <path id="minus" d="m274 8h10v2h-10z"/>
  <path id="plus" d="m302 10h-4v4h-2v-4h-4v-2h4v-4h2v4h4z"/>
  <path id="sync" d="m322 9.36c-.0996.588-.199 1.17-.399 1.66-.399 1.27-2.5 3.23-2.5 3.23l1.23 1.75-4.93 6e-6v-6.15s.899 1.47 1.4 2.06c1.2-.588 2-1.76 2.1-2.94.101-.881-.199-1.66-.599-2.25-.188-.323-.421-.58-.687-.793-.3-.239-1.01-.578-1.01-.578l.0174-3.33c1.03.268 1.5.386 2.86 1.37 1.68 1.25 2.78 3.5 2.52 5.98zm-6.99-1.96s-1.1-1.47-1.6-1.96c-1.4.686-2.2 1.96-2.2 3.33.392 1.96 1.15 2.88 2.87 3.73v3.5c-1.15-.145-2.9-1.14-3.76-2.02-1.64-1.7-2.56-3.74-2.21-6.19.1-.685.3-1.37.499-1.96.4-1.08 1.1-1.96 2.1-2.64.0997-.0983.199-.098.299-.196-.399-.392-1.29-.996-1.29-.996l5.36-1.3e-6z"/>
  <path id="rss" d="m339 15.9h-1.5c-.4 0-.8-.3-.8-.8 0 0 .3-3.6-3.2-7.2-2.5-3-7-3.2-7-3.2-.5 0-.8-.3-.8-.7v-1.4c0-.4.3-.7.8-.7 0 0 6.3.4 9.6 4.5 3.3 3.1 3.6 8.8 3.6 8.8-.001.4-.201.7-.701.7zm-12.5-9s3.7.5 5.8 2.4c2.1 2 2.5 5.9 2.5 5.9 0 .4-.1.8-.5.8h-1.5c-.4 0-.6-.3-.6-.8 0 0 .1-2.4-1.8-4.2-1.5-1.3-3.9-1.4-3.9-1.4-.5 0-.8-.3-.8-.7v-1.3c0-.4.3-.7.8-.7zm1.2 5c1.1 0 2 .9 2 2s-.9 2-2 2c-1.1 0-2-.9-2-2s.9-2 2-2z"/>
  <path id="webrtc" d="m344 5s.0643-.464.3-.7.7-.3.7-.3h7.5s.464.0643.7.3c.236.236.3.7.3.7v2l4.02-3-.049 10-3.98-3v2s-.0643.464-.3.7-.7.3-.7.3h-7.5s-.464-.0643-.7-.3c-.236-.236-.3-.7-.3-.7z"/>
  <path id="bookmark-none" d="m369 1-1.91 3.27s-.462.803-.84 1.04c-.498.313-1.72.398-1.72.398h-3.74l3.01 4.37s.387.755.58 1.13c.356.695-.0841 1.84-.244 2.86-.242 1.54-.467 2.94-.467 2.94l3.06-1.47s1.48-.686 2.27-.686c.671.001 1.93.588 1.93.588l3.05 1.56s-.112-1.55-.26-3.15c-.093-1.02-.388-2.11-.104-2.74.189-.417.568-1.25.568-1.25l2.61-4.25h-3.76s-.917-.145-1.29-.398c-.397-.27-.906-1.12-.906-1.12zm-.0762 3 1.15 1.93s.316.532.564.701c.232.158.807.25.807.25h2.35l-1.63 2.65s-.239.521-.357.781c-.177.39.008 1.07.0664 1.71.0925 1 .162 1.97.162 1.97l-1.91-.979s-.784-.367-1.2-.367c-.493 0-1.42.43-1.42.43l-1.91.916s.14-.873.291-1.83c.1-.632.375-1.35.152-1.79-.121-.236-.361-.709-.361-.709l-1.88-2.73h2.34s.763-.0544 1.07-.25c.236-.147.523-.648.523-.648z"/>
  <path id="bookmark-added" d="m369 19-1.91 3.27s-.461.803-.839 1.04c-.498.313-1.72.399-1.72.399h-3.74l3.01 4.36s.387.755.58 1.13c.356.695-.084 1.85-.244 2.86-.242 1.54-.467 2.94-.467 2.94l3.06-1.47s1.48-.686 2.27-.686c.671.001 1.92.588 1.92.588l3.05 1.56s-.112-1.55-.26-3.15c-.093-1.02-.388-2.11-.104-2.74.189-.417.57-1.25.57-1.25l2.61-4.25h-3.76s-.917-.146-1.29-.399c-.397-.27-.906-1.12-.906-1.12z"/>
 </g>
</svg>
